<svg xmlns="http://www.w3.org/2000/svg" width="1465.485" height="1396.29" viewBox="0 0 1465.485 1396.29"><defs><style>.a{fill:#7432ff;}.b,.g{fill:#fff;}.b,.y{stroke:#7431fd;stroke-width:3px;}.c{fill:#33324f;}.d{fill:#e8776e;}.aa,.e,.j,.r,.y{fill:none;}.e{stroke:#924541;stroke-width:1.384px;}.e,.j,.r{stroke-miterlimit:10;}.f,.w{fill:#fdbb3b;}.h,.k{opacity:0.5;}.i,.k{fill:#924541;}.j{stroke:#ec9e05;stroke-width:1.106px;}.l{fill:#972a45;}.m{fill:#dc3c5e;}.n{fill:#7332ff;opacity:0.667;}.o{fill:#00b0d1;}.p,.s{fill:#08b;}.q{fill:#006891;}.r{stroke:#00b0d1;stroke-width:2px;}.s,.w{font-size:41px;font-family:Montserrat-ExtraBold, Montserrat;font-weight:800;}.t{fill:#e2e4e4;}.u{fill:#00aa80;}.v{fill:#eb496f;}.x{fill:#7331fd;}.z{stroke:none;}</style></defs><g transform="translate(-121.56 -1276.562)"><circle class="a" cx="11.5" cy="11.5" r="11.5" transform="translate(565 2136)"/><circle class="a" cx="11.5" cy="11.5" r="11.5" transform="translate(634 2256)"/><circle class="a" cx="11.5" cy="11.5" r="11.5" transform="translate(695.117 2226.003)"/><g class="b" transform="translate(497 2165)"><circle class="z" cx="11.5" cy="11.5" r="11.5"/><circle class="aa" cx="11.5" cy="11.5" r="10"/></g><g transform="translate(398.074 1423.038)"><path class="c" d="M347.6,198.968s-30.641,10.151-21.835,38.435c0,0-23.482-2.826-29.843,28.138,0,0-35.71-1.356-33.754,35.353s42.677,17.7,42.677,17.7,10.387,32.99,38.4,16.7c0,0,17.378,23.625,36.639,0Z" transform="translate(-262.092 -150.371)"/><path class="c" d="M381.576,204.289s25.651,19.595,8.1,43.458c0,0,23.119,4.991,19.024,36.337,0,0,34.2,10.372,20.371,44.432s-46.117,2.8-46.117,2.8-20.584,27.8-41.751,3.26c0,0-24.137,16.658-34.632-11.958Z" transform="translate(-210.1 -144.151)"/><path class="c" d="M403.19,240.486c-.327,1.92-.731,3.885-1.206,5.924a144.038,144.038,0,0,1-4.585,15.513,3.253,3.253,0,0,1-.134.343c-.744,2.1-1.549,4.255-2.427,6.459a6.968,6.968,0,0,1-6.177,4.451l-70.857,2.5c-5.448.193-8.754-6.073-10.628-11.268-7.414-20.573-21.631-68.818,28.685-85.194a53.845,53.845,0,0,1,27.225-1.607C381.888,181.387,411.332,194.577,403.19,240.486Z" transform="translate(-218.353 -176.563)"/></g><g transform="translate(547.424 1587.818)"><path class="d" d="M339.344,303.222a40.537,40.537,0,0,0-.8,10.585,31.966,31.966,0,0,0,2.171,9.865c17.586,44.458,132.992,36.483,132.992,36.483l-.16-20.107-91.931-36.511-4.225-1.672Z" transform="translate(-322.152 -194.865)"/><g transform="translate(0)"><path class="d" d="M387.877,372.073l-34.468,16.91a32.38,32.38,0,0,1-4.943-8.811c-1.481-3.889-2.841-7.691-4.11-11.407-.115-.384-.26-.783-.39-1.165-2.707-8.16-4.9-15.916-6.67-23.28a219.644,219.644,0,0,1-6.334-48.918c-.071-5.629.154-10.728.529-15.3l-.015-.013a123.523,123.523,0,0,1,15.773-25.369c1.065-.774,2.16-1.52,3.212-2.193l1.165.043,6.871.278,11.288.451q2.082,2.508,4.243,5.657c.716,1.052,1.432,2.147,2.149,3.319,3.238,16.81,6.813,53.164,9.16,79.44.163,2.006.323,3.939.479,5.811.082.772.135,1.544.2,2.3s.13,1.471.182,2.184c.193,2.065.351,4.01.508,5.824.163,1.976.332,3.772.453,5.392C387.619,368.774,387.877,372.073,387.877,372.073Z" transform="translate(-330.949 -252.533)"/><line class="e" x2="11.363" y2="4.359" transform="translate(51.811 105.785)"/></g><g transform="translate(138.697 126.208)"><path class="d" d="M400.011,326.79c-.434.4-.848.807-1.236,1.221l-.028.03-.026.028c-5.6,6.017-6.275,13.641,6.362,20.987a8.8,8.8,0,0,0,5.112,1.024l0,0s11.491-.792,21.15-4.837c5.882-2.462,7.1-4.989,7.42-5.186a14.425,14.425,0,0,1,3.841-.614,7.078,7.078,0,0,1,2.722.818s-.731,1.6-3.544,2.783-2.145,7.119,4.767,3.843c5.759-2.731,7.542-6.13,6.054-9.021a21.881,21.881,0,0,1,1.735,1.49c7.565,7.262,12.849.369,4.555-6.661-.915-.777-1.889-1.538-2.9-2.277a4.274,4.274,0,0,0,.549-.338,19.917,19.917,0,0,1,1.744,1.113c8.656,6.225,12.166-2.115,3.113-7.435a51.43,51.43,0,0,0-8.194-3.809,28.384,28.384,0,0,1,3.928.529c8.539,1.824,10.977-5.622,2.9-7.843s-21.894-2.57-30.709-.75C421.018,313.6,407.316,319.962,400.011,326.79Z" transform="translate(-394.894 -310.72)"/><path class="e" d="M428.211,314.918c-10.442.234-14.573,2.277-14.573,2.277" transform="translate(-372.983 -305.813)"/><path class="e" d="M423.495,323.835s-2.581-1.488-7.179-.6" transform="translate(-369.852 -296.419)"/><g transform="translate(33.817 7.389)"><path class="e" d="M412.75,335.353c4.913-1.9,7.96-5.093,11.548-6.03,4.785-1.249,13.938-1.592,14.686-4.065,1.449-4.789-3.815-5.585-10.2-5.624s-16.534-1.6-18.3-5.507" transform="translate(-410.485 -314.127)"/></g></g></g><path class="f" d="M456.952,268.66a9.486,9.486,0,0,1-.089,1.831l-6.817,99.544-5.865,85.55L262.66,452.652l29.921-181.76a22.685,22.685,0,0,1,17.209-25.664c5.418-1.264,11.09-2.262,16.628-3.065,1.338-.2,2.679-.373,3.989-.551,2.783-.358,5.494-.655,8.084-.924,1.176-.119,2.321-.223,3.438-.328.8-.074,1.607-.147,2.382-.208,10.7-.937,18.369-1.087,18.369-1.087l25.024,1.727a131.648,131.648,0,0,1,14.4.8c.343.028.685.074,1.026.119.223.028.432.043.642.074.609.089,1.2.163,1.8.239,1.711.239,3.379.505,5.032.789q2.3.4,4.509.848l.015.015c1.251.252,2.486.521,3.707.787,4.2.954,8.127,2.041,11.745,3.156,1.742.536,2.859.863,3.618,1.072a.535.535,0,0,1,.132.03c.655.2,1.028.282,1.3.358a2.164,2.164,0,0,1,.223.059,10.233,10.233,0,0,1,1.1.416c.076.03.165.076.239.106C441.279,251.408,448.914,256.125,456.952,268.66Z" transform="translate(136.645 1319.542)"/><g transform="translate(467.053 1558.608)"><g transform="translate(0 1.087)"><path class="g" d="M324.95,261.961l5.21-21.406c.163.046.178-.074.148-.267.223.028.432.043.642.074.609.089,1.2.163,1.8.239,1.711.239,3.379.505,5.032.79q2.3.4,4.509.848l.015.015c1.251.252,2.486.521,3.707.787C370.649,273.975,324.95,261.961,324.95,261.961Z" transform="translate(-257.59 -238.724)"/><path class="g" d="M362.564,260.973a26.986,26.986,0,0,1-1.594,2.651c-5.969,8.93-28.685,34.327-67.076-22.6,2.783-.358,5.494-.655,8.084-.924,1.176-.119,2.321-.223,3.438-.328.8-.074,1.607-.147,2.382-.208l53.368,20.855Z" transform="translate(-293.894 -239.567)"/></g><path class="d" d="M297.621,240.688c1.176-.119,2.321-.223,3.438-.328,11.923-1.117,20.751-1.295,20.751-1.295l25.024,1.727a131.649,131.649,0,0,1,14.4.8c1.145.178,2.293.356,3.41.551C364.639,242.148,378.334,289.35,297.621,240.688Z" transform="translate(-289.537 -239.066)"/></g><g class="h" transform="translate(525.659 1538.208)"><path class="i" d="M321.106,230.7c-1.8,2.7,9.665,5.969,10.973,3.321S322.969,227.9,321.106,230.7Z" transform="translate(-320.915 -229.661)"/></g><g transform="translate(570.748 1563.225)"><path class="f" d="M389.56,347.582s-7.084,4.572-15.511,9.259a139.989,139.989,0,0,1-16.4,8.01c-4.316,1.651-7.934,2.471-9.854,1.681l-5.449-110.081L341.7,243.5a.484.484,0,0,1,.089.013.536.536,0,0,1,.132.03,9.35,9.35,0,0,1,1.3.358,2.174,2.174,0,0,1,.223.059c.325.119.683.254,1.1.416.076.03.165.076.239.106,3.395,1.442,9.216,4.926,15.691,13.218,1.34,1.711,2.694,3.633,4.078,5.776.685,1.071,1.371,2.189,2.056,3.379C375.433,281.98,384.441,306.809,389.56,347.582Z" transform="translate(-341.703 -243.5)"/></g><g transform="translate(578.853 1610.685)"><path class="j" d="M345.439,265.381s13.9,40,7.839,73.891" transform="translate(-345.439 -265.381)"/><line class="j" y1="7.288" x2="3.44" transform="translate(2.87 2.397)"/></g><g transform="translate(398.834 1570.531)"><path class="d" d="M294.577,247.511c.1-.089.208-.163.312-.239.744-.549,1.444-1.041,2.115-1.488,1.249-.462,2.486-.878,3.676-1.221l22.031,7.294c2.189,5.911-6.743,55.08-13.114,88.038-.551,2.8-1.072,5.477-1.579,7.993-.907,4.6-1.711,8.678-2.382,12.044q-.111.6-.223,1.16c-1.087,5.433-1.757,8.678-1.757,8.678l-38.808,6.921-.312.061q-.849-7.5-1.34-14.589c-.178-2.575-.328-5.091-.445-7.576-.419-9.051-.388-17.521-.046-25.455,1.117-24.846,5.537-44.2,10.389-58.413Z" transform="translate(-262.443 -244.563)"/><path class="d" d="M302.466,298.167,396.7,340.862l-.787,20.085S247.759,364.153,264.4,297.725Z" transform="translate(-261.677 -182.417)"/><g transform="translate(127.214 148.879)"><path class="d" d="M357.488,343.093a48.107,48.107,0,0,1,13.76,4.5c6.435,3.427,7.422-3.781,1.661-6.867a27.015,27.015,0,0,1,7.5,3.405c4.013,2.575,6.767-1.828,4.819-4.6a3.648,3.648,0,0,0,4.644-1.1c1.822-2.564-.87-5.765-1.943-6.724,0,0,6.106-4.108-4.932-10.719s-26.254-11.411-47.02-4.173c-14.287,4.98-16.473,15.4-14.014,21.274C326.434,348.76,344.046,352.643,357.488,343.093Z" transform="translate(-321.094 -313.202)"/><path class="e" d="M352.787,328.719c-9.669-5.039-14.48-5.249-14.48-5.249" transform="translate(-300.972 -301.199)"/><path class="e" d="M362.877,330.782c-14.593-9.689-22.662-10.1-22.662-10.1" transform="translate(-298.742 -304.455)"/><path class="e" d="M363.839,327.038c-8.956-7.461-22.137-9.839-22.137-9.839" transform="translate(-297.003 -308.53)"/></g><line class="e" x1="11.317" y1="5.16" transform="translate(36.27 113.67)"/></g><path class="f" d="M318.805,242.083s-52.733,14.4-65.059,115.8c0,0,47.249,4.54,70.534-3.041l16.554-101.9Z" transform="translate(126.225 1323.069)"/><g transform="translate(443.245 1618.464)"><path class="j" d="M282.918,327.958l7.259-1.851,4.14-59.445" transform="translate(-282.918 -266.662)"/><line class="j" y1="6.961" x2="6.383" transform="translate(10.548 5.261)"/></g><g transform="translate(472.695 1434.532)"><g transform="translate(15.99 93.851)"><path class="d" d="M303.868,263.527c31.437,8.316,49.792,15.528,45.378,3.141l-.967-4.8-.247-1.247-2.7-13.407-2.6-12.875-1.273-6.245-33.528-2.965-1.792,16.886-.742,6.956Z" transform="translate(-303.868 -225.131)"/><path class="k" d="M304.575,247.391c4.212,1.659,34.867,13.611,42.877,12.9l-.247-1.247-2.7-13.407-37.689-19.15Z" transform="translate(-303.042 -223.549)"/></g><g transform="translate(12.328 1.461)"><path class="d" d="M394.665,239.406c-.087,1.3-.173,2.57-.288,3.9-.059.811-.145,1.618-.232,2.429A113.957,113.957,0,0,1,391.776,260a75.169,75.169,0,0,1-4.652,13.9,51.723,51.723,0,0,1-4.911,8.609c-11.441,16.265-28.169,18.027-39.263,16.988-12.8-1.184-32.3-7.455-38.656-33.368-1.937-7.743-2.659-17.278-1.677-28.95.087-1.215.2-2.4.347-3.583.115-1.3.289-2.572.462-3.813,3.93-28.488,16.959-50.069,50.444-46.948C387.759,186.014,396.369,210.224,394.665,239.406Z" transform="translate(-302.179 -182.535)"/></g><path class="e" d="M328.081,233.86l16.528,1.612c-13.433-2.258-9.671-22.571-9.671-22.571" transform="translate(-259.573 -145.577)"/><g transform="translate(51.094 59.128)"><g transform="translate(35.884 3.661)"><path class="c" d="M344.311,216.8c-.315,3.082-2.288,5.405-4.405,5.188s-3.581-2.889-3.267-5.971,2.286-5.405,4.405-5.188S344.625,213.714,344.311,216.8Z" transform="translate(-336.596 -210.811)"/></g><path class="c" d="M327.767,215.108c-.315,3.082-2.286,5.405-4.405,5.19s-3.581-2.891-3.266-5.973,2.286-5.405,4.405-5.188S328.081,212.026,327.767,215.108Z" transform="translate(-320.052 -209.123)"/></g><g transform="translate(45.851 44.305)"><g transform="translate(41.144 5.425)"><path class="c" d="M336.977,206.192c-2.707,3.672,10.173,8.123,12.285,4.527S339.775,202.4,336.977,206.192Z" transform="translate(-336.604 -204.79)"/></g><path class="c" d="M330.67,204.543c1.948,4.123-11.546,6.012-12.927,2.076S328.653,200.279,330.67,204.543Z" transform="translate(-317.635 -202.289)"/></g><g transform="translate(53.438 90.742)"><path class="l" d="M321.133,223.7a12.473,12.473,0,0,0,23.334,5.737Z" transform="translate(-321.133 -223.698)"/><path class="m" d="M322.024,227.545a12.488,12.488,0,0,0,16,4.527c-.883-2.644-3.65-5.008-7.316-5.911A10.369,10.369,0,0,0,322.024,227.545Z" transform="translate(-320.091 -221.247)"/></g><path class="c" d="M400.843,234.291c-.328,1.92-.731,3.885-1.206,5.924a144.018,144.018,0,0,1-4.585,15.513,3.23,3.23,0,0,1-.134.343c-6.088-9.826-1.653-33.034-1.653-33.034-18.666-1.876-30.8-16.569-30.8-16.569-13.25,6.373-33.242,4.2-33.242,4.2-3.885,19.948-12.459,29.652-16.805,33.448a1.6,1.6,0,0,1-2.651-1.219l-.043-6.55-8.21-4.57L306,213.913,311.4,197.1l23.842-15.235,36.9,2.084,12.563,11.3,13.964,16.612Z" transform="translate(-290.627 -181.862)"/><g transform="translate(0 49.811)"><path class="d" d="M321.1,211.02a11.324,11.324,0,0,0-3.011-2.993c-3.592-2.464-7.342-3.555-10.7-3.1a9.438,9.438,0,0,0-2.6.722,10.87,10.87,0,0,0-4,2.867,15.456,15.456,0,0,0-2.375,3.574,17.8,17.8,0,0,0-1.62,11.2,19.976,19.976,0,0,0,7.218,11.6,12.527,12.527,0,0,0,3.75,2.147c4.277,1.586,9.084.809,11.76-2.481a2.4,2.4,0,0,0,.774-.794,2.536,2.536,0,0,0,.369-.757c.052-.174.106-.332.158-.51a.054.054,0,0,1,.017-.035c.354-1.128.722-2.34,1.056-3.609a36.831,36.831,0,0,0,1.41-8.767A14.907,14.907,0,0,0,321.1,211.02Z" transform="translate(-296.496 -204.827)"/><path class="e" d="M310.177,225.513s6.4-20.844-10.16-15.5" transform="translate(-292.379 -199.787)"/><line class="e" x1="7.151" y1="3.243" transform="translate(11.801 16.092)"/></g><g transform="translate(34.865 20.82)"><path class="g" d="M317.979,191.489l-4.707,1.165a.928.928,0,0,0-.649,1.212l4.134,11.578a.925.925,0,0,0,1.015.6l1.358-.213a.926.926,0,0,0,.781-.974l-.785-12.533A.924.924,0,0,0,317.979,191.489Z" transform="translate(-312.57 -191.461)"/><path class="g" d="M352.192,199.527l-4.208-2.41a.927.927,0,0,0-1.306.427l-5.015,11.225a.927.927,0,0,0,.319,1.139l1.128.785a.926.926,0,0,0,1.236-.163l8.092-9.6A.926.926,0,0,0,352.192,199.527Z" transform="translate(-278.652 -184.992)"/></g></g><path class="j" d="M349.053,299.448" transform="translate(237.64 1385.129)"/><g transform="translate(578.853 1610.685)"><g transform="translate(0)"><path class="j" d="M349.053,299.448" transform="translate(-341.214 -225.557)"/><path class="j" d="M345.439,265.381" transform="translate(-345.439 -265.381)"/><path class="j" d="M346.762,269.846" transform="translate(-343.892 -260.161)"/></g></g><g transform="translate(521.962 1582.182)"><g transform="translate(0)"><path class="g" d="M333.293,251.447a1.169,1.169,0,0,0-1.473-.956,1.132,1.132,0,0,0-1.588.182c-5.572,6.676-9.971,14.942-10.891,23.718-.551,5.232.464,12.634,6.06,14.925,5.1,2.087,8.947-3.219,10.316-7.516C338.672,272.517,334.7,260.7,333.293,251.447Zm-9.565,33.472c-3.909-4.171-2.011-12.363-.477-17.133a45.94,45.94,0,0,1,7.932-14.441c.863,5.553,1.8,11.105,2.52,16.675a32.172,32.172,0,0,1,.375,8.008C333.634,281.635,330.22,291.845,323.728,284.919Z" transform="translate(-319.21 -249.568)"/><path class="g" d="M334.469,281.022c2.865,3.481,8.409,6.976,12.368,3.143,4.344-4.208,2.536-11.457.08-16.107-4.117-7.806-11.272-13.845-18.927-17.972a1.137,1.137,0,0,0-1.544.421,1.169,1.169,0,0,0-1.009,1.438C327.569,261.056,328.274,273.5,334.469,281.022Zm.117-4.112a32.251,32.251,0,0,1-2.627-7.57c-1.4-5.44-2.6-10.945-3.859-16.419a45.932,45.932,0,0,1,12.732,10.459c3.2,3.859,8,10.758,5.926,16.081C343.306,288.3,336.341,280.093,334.586,276.909Z" transform="translate(-311.972 -249.935)"/></g><path class="g" d="M329.764,258.613c-.1-1.523-2.479-1.531-2.381,0a372.67,372.67,0,0,1-1.028,60.457c-.15,1.525,2.234,1.514,2.382,0A372.905,372.905,0,0,0,329.764,258.613Z" transform="translate(-310.866 -241.128)"/><path class="g" d="M326.624,259.892c-.425-1.464,1.809-2.284,2.238-.809a372.98,372.98,0,0,0,21.549,56.494c.659,1.384-1.583,2.184-2.238.811A372.924,372.924,0,0,1,326.624,259.892Z" transform="translate(-310.606 -240.15)"/></g><ellipse class="n" cx="437.682" cy="47.04" rx="437.682" ry="47.04" transform="translate(121.56 1767.017)"/><ellipse class="n" cx="437.682" cy="47.04" rx="437.682" ry="47.04" transform="translate(121.56 1826.92)"/><ellipse class="n" cx="437.682" cy="47.04" rx="437.682" ry="47.04" transform="translate(121.56 1887.92)"/><g transform="translate(576.923 1594.901)"><g transform="translate(0)"><path class="o" d="M602.255,431.422H344.55L365.831,258.1H623.536Z" transform="translate(-344.55 -258.104)"/><path class="p" d="M607.241,431.422h-257.7L370.817,258.1h257.7Z" transform="translate(-338.721 -258.104)"/><g transform="translate(108.621 104.718)"><path class="p" d="M394.628,364.367l52.932-14.214,5.609,15.972Z" transform="translate(-394.628 -255.217)"/><path class="o" d="M402.1,306.383h41.823l27.015,89.523a21.982,21.982,0,0,1-21.046,28.331H434.638Z" transform="translate(-385.895 -306.383)"/><path class="q" d="M405.531,306.383h41.823L476.3,402.316a17.008,17.008,0,0,1-16.285,21.922H438.068Z" transform="translate(-381.884 -306.383)"/><rect class="q" width="58.541" height="8.747" transform="translate(0 109.108)"/></g></g><ellipse class="o" cx="18.139" cy="18.139" rx="18.139" ry="18.139" transform="translate(128.475 81.366) rotate(-76.669)"/></g><g transform="translate(386.317 1766.854)"><g transform="translate(99.664 11.899)"><g transform="translate(5.227)"><rect class="o" width="24.055" height="9.567"/><rect class="o" width="24.055" height="9.567" transform="translate(32.846)"/><rect class="o" width="24.055" height="9.567" transform="translate(65.692)"/><rect class="o" width="24.055" height="9.567" transform="translate(98.538)"/><rect class="o" width="24.055" height="9.567" transform="translate(131.383)"/><rect class="o" width="24.055" height="9.567" transform="translate(164.229)"/><rect class="o" width="24.055" height="9.567" transform="translate(197.075)"/></g><rect class="q" width="231.15" height="13.142" transform="translate(0 6.218)"/></g><g transform="translate(0)"><path class="p" d="M342.761,368.534H259.535a2.862,2.862,0,0,1-2.635-3.978c5.6-13.4,28.47-53.232,87.771-1.015A2.86,2.86,0,0,1,342.761,368.534Z" transform="translate(-256.672 -337.382)"/><line class="r" x1="29.316" y1="20.289" transform="translate(58.682 5.871)"/></g></g><g transform="translate(421.067 1326.531)"><g transform="translate(0)"><rect class="g" width="209.185" height="75.992" rx="8.399"/><path class="g" d="M272.693,161.077v47.529l23.87-31.5Z" transform="translate(-272.693 -103.159)"/></g><text class="s" transform="translate(20.314 48.984)"><tspan x="0" y="0">phyton</tspan></text></g><g transform="translate(663.695 1353)"><rect class="p" width="106.873" height="106.873" rx="5.5"/><g transform="translate(13.622 15.669)"><path class="g" d="M449.324,196.483A10.364,10.364,0,1,1,438.87,186.21,10.367,10.367,0,0,1,449.324,196.483Z" transform="translate(-399.06 -126.502)"/><path class="g" d="M484.565,179.674a48.955,48.955,0,0,0-59.491.523c-2.724,2.11-6.54,2.5-8.8.382h0c-2.251-2.1-1.547-6.49,1.924-9.2a60.131,60.131,0,0,1,73.08-.642c3.518,2.646,4.3,7.019,2.087,9.162h0C491.148,182.053,487.324,181.736,484.565,179.674Z" transform="translate(-414.979 -158.682)"/><path class="g" d="M469.2,185.188a34.887,34.887,0,0,0-39.426.347c-2.789,1.922-6.6,2.325-8.882.232h0c-2.273-2.071-1.39-6.691,2.479-9.4a46.08,46.08,0,0,1,52.069-.458c3.915,2.638,4.88,7.238,2.644,9.351h0C475.846,187.394,472.026,187.06,469.2,185.188Z" transform="translate(-409.507 -147.695)"/><path class="g" d="M452.991,190.823a20.325,20.325,0,0,0-18.443.161c-2.924,1.458-6.741,1.9-9.069-.143h0c-2.334-2-1-7.214,3.9-9.767a31.533,31.533,0,0,1,28.607-.252c4.939,2.471,6.37,7.654,4.071,9.7h0C459.765,192.6,455.939,192.227,452.991,190.823Z" transform="translate(-404.009 -136.665)"/></g></g><g transform="translate(733.702 1276.562)"><g transform="translate(0.001 0)"><rect class="t" width="154.524" height="99.938" rx="3.449"/></g><path class="q" d="M482.211,64.027v6.9H327.685v-6.9a6.67,6.67,0,0,1,6.671-6.671H475.54A6.67,6.67,0,0,1,482.211,64.027Z" transform="translate(-327.685 -57.356)"/><g transform="translate(2.828 2.982)"><path class="u" d="M347.143,62.7a3.8,3.8,0,1,1-3.8-3.8A3.8,3.8,0,0,1,347.143,62.7Z" transform="translate(-319.443 -58.898)"/><path class="f" d="M342.013,62.7a3.8,3.8,0,1,1-3.8-3.8A3.8,3.8,0,0,1,342.013,62.7Z" transform="translate(-324.233 -58.898)"/><path class="v" d="M336.754,62.7a3.8,3.8,0,1,1-3.8-3.8A3.8,3.8,0,0,1,336.754,62.7Z" transform="translate(-329.147 -58.898)"/></g><text class="w" transform="translate(12.827 68.239)"><tspan x="0" y="0">HTML</tspan></text></g><rect class="x" width="7.34" height="15.729" transform="translate(960.882 1606.147)"/><rect class="x" width="7.34" height="15.728" transform="translate(960.882 1634.304)"/><rect class="x" width="7.34" height="15.729" transform="translate(971.855 1631.518) rotate(-90)"/><rect class="x" width="7.34" height="15.729" transform="translate(1008.53 1544.285)"/><rect class="x" width="7.34" height="15.728" transform="translate(1008.53 1572.442)"/><rect class="x" width="7.34" height="15.729" transform="translate(1019.504 1569.656) rotate(-90)"/><rect class="x" width="7.34" height="15.729" transform="translate(989.737 1569.656) rotate(-90)"/><rect class="x" width="7.34" height="15.729" transform="translate(942.089 1631.518) rotate(-90)"/><path class="y" d="M9091.923,2289v342.978H8934.459v347.875" transform="translate(-8515 -307)"/><circle class="a" cx="11.5" cy="11.5" r="11.5" transform="translate(497 2029)"/><circle class="a" cx="11.5" cy="11.5" r="11.5" transform="translate(385 2468)"/><circle class="a" cx="11.5" cy="11.5" r="11.5" transform="translate(634 2052)"/><g class="b" transform="translate(462.612 2406.209)"><circle class="z" cx="11.5" cy="11.5" r="11.5"/><circle class="aa" cx="11.5" cy="11.5" r="10"/></g><circle class="a" cx="11.5" cy="11.5" r="11.5" transform="translate(408 2316)"/><path class="y" d="M9124.843,2289v88.063l36.013,36.013v161.052" transform="translate(-8515 -307)"/><path class="y" d="M9160.856,2289v88.063l-36.013,36.013v60.691" transform="translate(-8616.587 -307)"/><path class="y" d="M9124.843,2442.207v-52.132l36.013-36.013v-29.131" transform="translate(-8686.743 102.839)"/><path class="y" d="M9160.856,2289v58.8" transform="translate(-8652.356 -307)"/><path class="y" d="M9160.856,2347.8V2289" transform="translate(-8764.356 190.204)"/><path class="y" d="M9160.856,2289v81.5" transform="translate(-8515.356 -307)"/><path class="y" d="M9125.849,2253.994v226.854l35.006,35.006" transform="translate(-8458.15 -278.351)"/><g transform="translate(-652.237 -121.247)"><rect class="x" width="7.34" height="15.729" transform="translate(1008.53 1544.285)"/><rect class="x" width="7.34" height="15.728" transform="translate(1008.53 1572.442)"/><rect class="x" width="7.34" height="15.729" transform="translate(1019.504 1569.656) rotate(-90)"/><rect class="x" width="7.34" height="15.729" transform="translate(989.737 1569.656) rotate(-90)"/></g><g class="b" transform="translate(565 2185)"><circle class="z" cx="11.5" cy="11.5" r="11.5"/><circle class="aa" cx="11.5" cy="11.5" r="10"/></g><g class="b" transform="translate(565 2312)"><circle class="z" cx="11.5" cy="11.5" r="11.5"/><circle class="aa" cx="11.5" cy="11.5" r="10"/></g><g transform="translate(551.813 415.772)"><rect class="x" width="7.34" height="15.729" transform="translate(1008.53 1544.285)"/><rect class="x" width="7.34" height="15.728" transform="translate(1008.53 1572.442)"/><rect class="x" width="7.34" height="15.729" transform="translate(1019.504 1569.656) rotate(-90)"/><rect class="x" width="7.34" height="15.729" transform="translate(989.737 1569.656) rotate(-90)"/></g></g></svg>