<svg xmlns="http://www.w3.org/2000/svg" width="2292.574" height="1689.277" viewBox="0 0 2292.574 1689.277"><defs><style>.a{fill:#7230fd;opacity:0.097;}.b{fill:#30b47a;}.c,.x,.z{fill:#fff;}.c{font-size:42px;font-family:NanumBarunGothicBold, NanumBarunGothic;}.aa,.ac,.ad,.ae,.af,.ag,.ah,.ai,.aj,.ak,.al,.am,.an,.ao,.ap,.aq,.ar,.ba,.d,.e,.i,.j,.k,.l,.m,.o,.p,.q,.v,.w,.y{fill:none;}.ad,.ae,.af,.ag,.d,.i,.k{stroke:#cdd0c4;}.aa,.ac,.ad,.ae,.af,.ag,.ah,.ai,.aj,.ak,.al,.am,.an,.ao,.ap,.aq,.ba,.d,.e,.i,.j,.k,.l,.m,.o,.p,.q,.v,.w,.y{stroke-miterlimit:10;}.d{stroke-dasharray:4;}.ak,.e,.j,.w{stroke:#f6a915;}.e{stroke-width:1.306px;}.f{fill:#cdd0c4;}.g{fill:#f6a915;}.h{fill:#4b53e4;}.i{stroke-width:0.718px;}.j{stroke-width:0.883px;}.k{stroke-width:0.486px;}.l{stroke:#000;}.ao,.l{stroke-width:0.25px;}.m{stroke:#0c8563;stroke-width:2px;}.n{fill:#ff5940;}.o{stroke:#d15036;stroke-width:1.759px;}.aa,.ah,.aj,.an,.aq,.ba,.p{stroke:#fff;}.p{stroke-width:3.519px;}.ai,.ao,.q,.v{stroke:#221660;}.q{stroke-width:0.5px;}.r{fill:#221660;}.s{fill:#f68e15;}.t{fill:#fe9da7;}.u{fill:#f68;}.v{stroke-width:0.536px;}.w{stroke-width:0.827px;}.x{opacity:0.5;}.y{stroke:#f68;}.aa{stroke-width:0.803px;}.ab{fill:#fff9e1;}.ac{stroke:#d9c693;stroke-width:0.792px;}.ae{stroke-width:1.819px;}.af{stroke-width:1.363px;}.ag{stroke-width:1.459px;}.ah{stroke-width:2.214px;}.al{stroke:#4b53e4;}.am{stroke:#f67215;stroke-width:1.398px;}.an{stroke-width:1.859px;}.ap{stroke:#efddc9;stroke-width:0.909px;}.aq{stroke-width:3.519px;}.as{fill:#e2e4e4;}.at{fill:#006891;}.au{fill:#00aa80;}.av,.ay{fill:#fdbb3b;}.aw{fill:#eb496f;}.ax,.az{fill:#08b;}.ax{font-size:19px;}.ax,.ay{font-family:Montserrat-ExtraBold, Montserrat;font-weight:800;}.ay{font-size:41px;}.ba{stroke-width:4.666px;opacity:0.14;}</style></defs><g transform="translate(390.365 -3405.267)"><path class="a" d="M1152.062,447.961c7.124-7.123,21.409-32.827,5.737-35.677s-58.412,71.235-73.372,60.549,63.4-133.207,29.918-149.591c-20.378-9.972-41.76,5.444-62.026,19.3-22.745,15.551-43.236,29.441-42.745,9.293.242-9.918,64.143-73.973,9.293-112.439-30.41-21.326-86.1,10.761-139.387,41.816-42.829,24.958-88.009,56.772-131.974,29.575C682.389,270.5,185.831-504.731-3.5-512.344V855.488s38.829,156.936,257.244,134.285,393.327-265.866,421.3-285.754c41.816-29.736,78.886-16.976,59.471,25.09s10.755,77.979,69.695,39.027c106.864-70.624,189.7-369.692,271.425-389.925,18.845-4.666-53.558,129.793-4.682,127.463,21.862-1.041,71.908-73.326,77.038-77.038,18.867-13.648,1.462,18.28,1.462,18.28Z" transform="translate(-10.525 3917.61)"/><ellipse class="b" cx="60.286" cy="60.286" rx="60.286" ry="60.286" transform="translate(1561.892 4213.83)"/><text class="c" transform="translate(1583 4290)"><tspan x="0" y="0">CSS</tspan></text><path class="d" d="M874.544,123.006S596.79,64.636,540.434,358.493C506.063,537.718,663.7,647.273,761.831,654.36c362.288,26.165,352.6-365.968,352.6-365.968" transform="translate(527.303 4035.99)"/><path class="d" d="M573.263,629.622C461.411,580.687,440.438,423.4,440.438,423.4l-2.531-44.051" transform="translate(429.822 4296.422)"/><rect class="e" width="173.456" height="114.884" rx="4.684" transform="translate(761.464 4565.565)"/><rect class="f" width="55.3" height="44.628" rx="2.81" transform="translate(868.624 4595.141)"/><path class="g" d="M557.894,333.37a9.356,9.356,0,0,0-9.357-9.355H393.795a9.356,9.356,0,0,0-9.357,9.355v1.574l173.476.919Z" transform="translate(376.481 4241.226)"/><path class="h" d="M467.158,374.146l-4.019,27.33,10.018-9.1,14.1,1.063Z" transform="translate(454.994 4291.237)"/><path class="i" d="M421.177,341.536h22.2" transform="translate(413.132 4258.705)"/><path class="i" d="M391.151,341.536h55.544" transform="translate(383.178 4258.705)"/><path class="i" d="M410.068,346.177h44.395" transform="translate(402.05 4263.334)"/><path class="i" d="M391.151,346.177h33.021" transform="translate(383.178 4263.334)"/><path class="i" d="M427.42,350.818h9.732" transform="translate(419.36 4267.964)"/><path class="i" d="M391.151,350.818c22.179.006,46.343.006,68.08,0" transform="translate(383.178 4267.964)"/><path class="i" d="M410.368,355.221h43.8" transform="translate(402.349 4272.357)"/><path class="i" d="M391.151,355.221h34.205" transform="translate(383.178 4272.357)"/><path class="i" d="M417.81,360.1h28.929" transform="translate(409.773 4277.224)"/><path class="i" d="M391.151,360.1h48.572" transform="translate(383.178 4277.224)"/><rect class="h" width="55.793" height="11.89" rx="2.976" transform="translate(774.3 4648.896)"/><rect class="j" width="117.323" height="77.706" rx="3.168" transform="translate(1701.947 4054.161)"/><rect class="f" width="37.404" height="30.186" rx="1.9" transform="translate(1774.429 4074.166)"/><path class="g" d="M972.654,74.387a6.329,6.329,0,0,0-6.328-6.328H861.659a6.328,6.328,0,0,0-6.328,6.328v1.065l117.337.621Z" transform="translate(846.248 3985.881)"/><path class="h" d="M911.282,101.967l-2.719,18.485,6.776-6.156,9.534.719Z" transform="translate(899.353 4019.709)"/><path class="k" d="M880.181,79.91H895.2" transform="translate(871.038 3997.704)"/><path class="k" d="M859.872,79.91h37.569" transform="translate(850.778 3997.704)"/><path class="k" d="M872.666,83.049H902.7" transform="translate(863.541 4000.836)"/><path class="k" d="M859.872,83.049h22.333" transform="translate(850.778 4000.836)"/><path class="k" d="M884.4,86.188h6.584" transform="translate(875.25 4003.967)"/><path class="k" d="M859.872,86.188c15,0,31.344,0,46.047,0" transform="translate(850.778 4003.967)"/><path class="k" d="M872.87,89.166h29.622" transform="translate(863.745 4006.938)"/><path class="k" d="M859.872,89.166h23.136" transform="translate(850.778 4006.938)"/><path class="k" d="M877.9,92.467H897.47" transform="translate(868.767 4010.231)"/><path class="k" d="M859.872,92.467h32.853" transform="translate(850.778 4010.231)"/><rect class="h" width="37.738" height="8.042" rx="2.013" transform="translate(1710.63 4110.524)"/><path class="l" d="M339.07,525.131a1.964,1.964,0,0,1,.939,1.9" transform="translate(331.222 4441.86)"/><ellipse class="m" cx="60.286" cy="60.286" rx="60.286" ry="60.286" transform="translate(1561.892 4213.83)"/><ellipse class="n" cx="53.031" cy="53.031" rx="53.031" ry="53.031" transform="translate(1093.507 4572.127)"/><ellipse class="o" cx="53.031" cy="53.031" rx="53.031" ry="53.031" transform="translate(1093.632 4572.127)"/><ellipse class="p" cx="19.573" cy="19.573" rx="19.573" ry="19.573" transform="translate(1121.455 4597.554)"/><path class="p" d="M581.548,358.142l16.235,16.233Z" transform="translate(573.119 4275.271)"/><path class="q" d="M677.668,204.476a33.452,33.452,0,0,0,2.315-11.37" transform="translate(669.01 4110.629)"/><path class="h" d="M792.579,317.145l86.656,135.138s52.637-98.4,60.438-108.542,83.9,32.082,83.9,32.082-43.444,87.9-65.256,138.408c-17.014,39.4-114.97,32.457-114.97,32.457L769.225,438.24Z" transform="translate(760.348 4234.372)"/><path class="r" d="M938.451,378.453s-76.1-42.224-83.9-32.082c0,0,13.262-28.794,18.534-31.3,14.549-6.928,124.319,52.865,121.091,55.286-6.648,4.986-51.746-3.712-51.746-3.712Z" transform="translate(845.47 4231.742)"/><path class="h" d="M704.035,421.358c13.973,27.8,109.159,188.526,148.95,212.713s145.106-22.623,210.644-46.029l-31.2-87.387-123.272,31.99-61.636-88.164s38.125-90.827,10.09-127.336Z" transform="translate(695.313 4234.372)"/><path class="r" d="M713.388,446.6l151.779-82.777,5.118-30.537Z" transform="translate(704.645 4250.475)"/><path class="g" d="M718.984,230.914c10.136-4.906,105.957,13.678,105.957,13.678L814.49,318.345l-49.944-10.453Z" transform="translate(710.227 4147.524)"/><path class="s" d="M804.576,306.815l-41.692-9.059-33.963-56.109a88.793,88.793,0,0,1,26.434,13.935c.679.529,25.523,16.075,26.195,16.638,10.915,9.155,27.127,3.524,27.127,3.524Z" transform="translate(720.141 4159.054)"/><path class="t" d="M570.805,286.948c-12.389-9.2-21.592-27.257-21.239-38.23s6.726-23.008,13.1-25.132,6.724,5.663,4.954,11.326-1.77,18.052-1.77,18.052Z" transform="translate(541.205 4140.679)"/><path class="u" d="M563.942,229.077c-1.77,5.663-1.77,18.052-1.77,18.052l4.956,33.983s-10.01-14.9-13.352-31.62S563.942,229.077,563.942,229.077Z" transform="translate(544.883 4146.515)"/><path class="t" d="M644.284,208.573c-10.07,18.8,7.151,73.4,8.532,76.79,3.084,7.579,8.532,28.644,48.754,12.187l9.079,17.523s48.192-20.553,51.848-27.867c0,0-9.141-15.8-19.451-38.48-9.624-21.169-19.828-49.147-36.6-53.562C671.707,186.024,653.425,191.509,644.284,208.573Z" transform="translate(632.569 4108.311)"/><path class="r" d="M651.117,242.127s9.141,21.33,46.926,2.439c0,0,5.485,10.36,16.456,10.969l1.828,12.8,9.141-3.658s3.658,35.957,10.362,39.005,39.613-11.58,43.88-18.284c1.6-2.513-3.3-28.74-4.267-41.442-1.618-21.169-1.265-41.9-22.231-31.42,0,0-7.247-16.119-14.561-20.386s-15.01,3.662-15.01,3.662-6.7-18.893-26.207-16.454-23.768,14.627-23.768,14.627-29.253-22.549-51.193,6.7c-16.692,22.255,6.095,46.317,18.284,43.879Z" transform="translate(608.062 4096.696)"/><path class="t" d="M594.11,264.908c-8.14,1.416-15.929-6.726-18.052-10.266s.815-7.631,11.326-20.531c7.789-9.557-.354-14.159-9.2-9.91,0,0-18.76,8.849-22.655,22.3-5.194,17.944,12.745,46.017,12.745,46.017s15.929,51.327,51.68,94.867c28.312,34.479,53.45,29.027,67.962,28.672s59.175-19.838,59.175-19.838l-43.608-61.968-30.434,12.427c-25.485-21.946-53.45-72.919-53.45-72.919Z" transform="translate(546.219 4140.065)"/><path class="u" d="M579.691,228.368c-10.511,12.9-13.45,16.992-11.326,20.531s9.912,11.682,18.052,10.266l-13.378,4.515-3.821,8.336s-8.684-14.936-6.6-24.662S579.691,228.368,579.691,228.368Z" transform="translate(553.912 4145.807)"/><path class="u" d="M629.121,278.5l43.608,61.968s-16.239,7.083-32.313,12.787c-3.494,1.24,8.7-4.7,7.024-15.613C644.047,315.507,629.121,278.5,629.121,278.5Z" transform="translate(620.579 4195.816)"/><path class="t" d="M777.118,291.7c-.687.252,35.775,9.576,45.488,4.916,13.578-6.518,33.019-53.019,33.019-53.019s-7.549-25.553-2.321-27.877,9.872,11.035,9.872,11.035,8.13-42.393,13.356-41.814,7.171,9.185,7.279,21.456c0,0,1.5,4.313,2.667-.332s3.768-20.246,8.993-21.988,8.568,15.37,5.663,26.984c0,0,10.09-19.9,12.992-19.321s6.542,12.947.154,26.884c0,0,8.484-10.935,11.386-9.193s.943,19.337-14.269,42.078c0,0-6.133,75.767-59.561,106.546-18.6,10.713-41.7,12.177-62.2,8.847a223.946,223.946,0,0,1-22.847-4.864Z" transform="translate(757.923 4101.504)"/><path class="t" d="M670.1,231.156c4.461-13.384,8.134-15.358,14.507-7.711s-1.125,23-10.046,22.367S670.1,231.156,670.1,231.156Z" transform="translate(660.353 4136.455)"/><path class="r" d="M868.43,413.616s30.17-11.672,36.738-8.754,58.158,124.3,55.24,141.081-49.063-49.567-49.063-49.567L899.627,501Z" transform="translate(859.315 4321.412)"/><path class="g" d="M627.83,319.158c1.22,10.969,40.7,71.015,46.187,69.187,3.656-1.219,29.862-14.626,29.862-14.626-.429.146,47.271,108.852,90.13,177.845,0,0,131.832-83.336,178.149-128.434,0,0-146.393-184.1-162.238-192.627L685.595,292.054Z" transform="translate(619.291 4147.936)"/><path class="v" d="M791.367,360.985a158.21,158.21,0,0,1-15.128,40.188l60.889,87.737,116.786-31" transform="translate(767.345 4278.107)"/><path class="r" d="M809.161,439.514l-32.922-47.437a156.644,156.644,0,0,0,9.686-21.624C788.113,364.382,809.161,439.514,809.161,439.514Z" transform="translate(767.345 4287.204)"/><path class="u" d="M789.641,313.1a223.946,223.946,0,0,1-22.847-4.864l10.324-70.34s1.255,47.923,6.221,58.848A173.86,173.86,0,0,1,789.641,313.1Z" transform="translate(757.923 4155.312)"/><path class="t" d="M600.321,268.538c3.893-12.745-4.249-21.948-10.619-32.213s-10.266-9.2-13.1-7.08c-2.437,1.83,4.047,22.032.7,28.512a26.416,26.416,0,0,0-3.344,11.023c-.294,7.549.507,17.287,6.342,18.81,1.964.513,1.836-19.565,3.9-19.313A86.2,86.2,0,0,0,600.321,268.538Z" transform="translate(565.495 4145.284)"/><path class="w" d="M436.718,553.791H414.063a40.027,40.027,0,0,1-40.028-40.028h0a40.027,40.027,0,0,1,40.028-40.026h4.413A40.028,40.028,0,0,1,458.5,513.763v37.665a1.666,1.666,0,0,1-1.444,1.792C452.213,553.358,436.824,553.791,436.718,553.791Z" transform="translate(382.346 4461.589)"/><path class="u" d="M529.494,471.868l-2.188,14.877,13.126-4.375Z" transform="translate(519.008 4388.725)"/><path class="u" d="M734.011,179.056l-2.866,19.489,17.2-5.732Z" transform="translate(722.359 4096.613)"/><path class="u" d="M424.024,299.469l-2.866,19.489,17.2-5.732Z" transform="translate(413.113 4216.738)"/><ellipse class="g" cx="6.138" cy="6.138" rx="6.138" ry="6.138" transform="translate(758.181 4195.673)"/><ellipse class="x" cx="3.825" cy="3.825" rx="3.825" ry="3.825" transform="translate(636.765 4144.254)"/><ellipse class="g" cx="5.76" cy="5.76" rx="5.76" ry="5.76" transform="translate(1016.458 4683.063)"/><ellipse class="g" cx="5.76" cy="5.76" rx="5.76" ry="5.76" transform="translate(279.069 4856.159)"/><path class="y" d="M871.568-2.957,888.665-.4l-3.9,12.552,15.019,2.6-2.209,13.764,14.586,1.777-3.075,12.119" transform="translate(862.446 3915.036)"/><rect class="h" width="18.656" height="18.656" transform="translate(1033.51 3947.389) rotate(-30)"/><rect class="z" width="11.054" height="11.054" transform="translate(938.797 4210.198) rotate(-30)"/><path class="aa" d="M466.508,210.035,474.3,214.1l-3.953,5.382,6.783,3.739-3.343,6.245,6.711,3.272-3.486,5.311" transform="translate(458.355 4127.518)"/><path class="ab" d="M695.029,524.418l116.4-60.723s19.469,5.789,28.686,21.316,8.18,40.8,15.314,46.9c14.269,12.2,44.952,9.754,51.233,53.522L797.41,653.348s-8.955-15.741-15.907-19.189c-11.165-5.537-30.881-9.083-43.048-23.945-9.768-11.932-7.719-39.976-16.071-58.278C713.856,533.246,695.029,524.418,695.029,524.418Z" transform="translate(686.329 4380.571)"/><path class="ac" d="M714.533,521.583c13.761-5.849,64.732-39.391,78.322-45.625" transform="translate(705.787 4392.805)"/><path class="ac" d="M718.464,530.428c13.762-5.851,64.733-39.391,78.322-45.625" transform="translate(709.708 4401.629)"/><path class="ac" d="M722.4,541.238c13.761-5.851,64.732-39.391,78.322-45.625" transform="translate(713.63 4412.413)"/><path class="ac" d="M726.8,552.8c13.761-5.851,64.732-39.391,78.322-45.625" transform="translate(718.023 4423.946)"/><path class="ac" d="M737.809,557.752c13.76-5.849,64.73-39.391,78.322-45.625" transform="translate(729.007 4428.888)"/><path class="ac" d="M748.818,564.358c13.761-5.851,64.733-39.391,78.322-45.625" transform="translate(739.989 4435.478)"/><path class="ad" d="M620.948,502.6c-4.8-1.748-7.917-5.829-6.59-10.761l1.45-5.394,12.117-44.375a6.211,6.211,0,0,1,2.028-3.166l7.539-6.273,1.928-1.6a1.774,1.774,0,0,1,2.795.737l.891,2.369,3.066,8.138a6.233,6.233,0,0,1,.208,3.732l-11.636,44.529-1.552,6.077a10.589,10.589,0,0,1-2.617,4.842c-1.974,2-4.481,2.649-8.755,1.428C621.518,502.8,621.228,502.7,620.948,502.6Z" transform="translate(605.545 4347.576)"/><path class="f" d="M631.4,434.138l-.891-2.369a1.774,1.774,0,0,0-2.795-.737l-1.928,1.6a2.335,2.335,0,0,0,1.994,1.564A10.276,10.276,0,0,0,631.4,434.138Z" transform="translate(617.252 4347.576)"/><path class="ad" d="M634.744,463.544l-1.626,6.364a9.872,9.872,0,0,1-2.831,4.832c-1.93,1.78-4.4,2.313-8.468,1.151-.3-.086-.591-.18-.871-.282-4.8-1.748-7.917-5.829-6.59-10.761l1.45-5.394s4.738-2.225,8.364-1.7C632.487,458.971,634.744,463.544,634.744,463.544Z" transform="translate(605.545 4374.568)"/><path class="ad" d="M615.421,463.235c1.864-1.49,10.064-2.423,13.42,3.913" transform="translate(606.912 4379.024)"/><path class="ad" d="M622.024,436.738l3.112,1.729,4.322-.865,3.631,2.248,3.285-1.21" transform="translate(613.499 4353.679)"/><path class="ad" d="M616.868,455.025s9.68-4.323,16.424,4.84" transform="translate(608.355 4370.906)"/><line class="ad" y1="29.634" x2="7.535" transform="translate(1239.054 4793.53)"/><line class="ad" y1="29.634" x2="7.535" transform="translate(1230.236 4795.604)"/><path class="y" d="M967.934,455.078c4.155,5.384,4.754,12.191-.252,16.8l-5.472,5.032-59.233,55.507a8.265,8.265,0,0,1-4.536,2.116l-12.947,1.686-3.31.432a2.361,2.361,0,0,1-2.617-2.821l.683-3.3,2.347-11.338a8.269,8.269,0,0,1,2.427-4.345l58.8-56.021,6.075-5.731a14.058,14.058,0,0,1,6.39-3.582c3.644-.845,6.928.212,10.865,4.628C967.435,454.451,967.693,454.764,967.934,455.078Z" transform="translate(870.377 4366.154)"/><path class="u" d="M880.251,489.934l-.683,3.3a2.361,2.361,0,0,0,2.617,2.821l3.31-.431a3.106,3.106,0,0,0-1.129-3.178A13.656,13.656,0,0,0,880.251,489.934Z" transform="translate(870.377 4406.748)"/><path class="y" d="M911.718,458.823l6.36-6a13.127,13.127,0,0,1,6.624-3.42c3.44-.627,6.6.529,10.346,4.736.28.312.537.625.779.939,4.155,5.384,4.754,12.191-.252,16.8l-5.472,5.032s-6.914-.871-10.615-4.047C911,465.573,911.718,458.823,911.718,458.823Z" transform="translate(902.484 4366.154)"/><path class="y" d="M929.464,465.076c-3.158.35-13.047-4.443-12.305-13.959" transform="translate(907.889 4368.023)"/><path class="y" d="M897.764,495.885l-2.269-4.161-5.477-2.106-2.483-5.114-4.557-.978" transform="translate(873.83 4400.355)"/><path class="y" d="M923.354,474.83s-13.967-2.034-15.026-17.142" transform="translate(899.118 4374.579)"/><line class="y" x1="43.581" y2="42.19" transform="translate(1761.365 4842.669)"/><line class="y" x1="43.581" y2="42.19" transform="translate(1772.76 4846.616)"/><path class="ae" d="M1021.314,246.927H907.564l-17.293,11.085-1.143-11.085a7.991,7.991,0,0,1-7.99-7.992V209.3a7.991,7.991,0,0,1,7.99-7.992h132.186a7.992,7.992,0,0,1,7.992,7.992v29.631A7.992,7.992,0,0,1,1021.314,246.927Z" transform="translate(871.993 4118.816)"/><line class="ae" x2="110.88" transform="translate(1772.815 4337.362)"/><line class="ae" x2="110.88" transform="translate(1772.815 4349.559)"/><path class="af" d="M530.941,121.344h28.408l9.567,6.133.631-6.133a4.42,4.42,0,0,0,4.421-4.421v-16.39a4.421,4.421,0,0,0-4.421-4.421H530.941a4.42,4.42,0,0,0-4.421,4.421v16.39A4.419,4.419,0,0,0,530.941,121.344Z" transform="translate(518.224 4013.867)"/><line class="af" x1="26.821" transform="translate(1054.48 4119.513)"/><line class="af" x1="26.821" transform="translate(1054.48 4126.26)"/><rect class="ag" width="92.272" height="60.447" rx="4.811" transform="translate(129.414 4971.803)"/><path class="b" d="M266.22,519.765s18.642-28.612,21.243-28.612S312.608,520.2,312.608,520.2Z" transform="translate(-124.781 4501.445)"/><path class="b" d="M283.919,501.111l14.5,18.228h17.449v-10.4s-16.354-15.406-20.749-18.224C293.757,492.155,283.919,501.934,283.919,501.111Z" transform="translate(-107.125 4501.004)"/><ellipse class="g" cx="4.874" cy="4.874" rx="4.874" ry="4.874" transform="translate(146.156 4981.844)"/><rect class="ah" width="102.14" height="66.911" rx="5.325" transform="translate(16.328 4811.925)"/><ellipse class="ai" cx="4.148" cy="4.148" rx="4.148" ry="4.148" transform="translate(1651.803 4571.058)"/><ellipse class="ai" cx="4.148" cy="4.148" rx="4.148" ry="4.148" transform="translate(1302.913 4579.908)"/><ellipse class="ai" cx="4.148" cy="4.148" rx="4.148" ry="4.148" transform="translate(1282.279 4910.116)"/><ellipse class="ai" cx="4.148" cy="4.148" rx="4.148" ry="4.148" transform="translate(1054.846 4165.465)"/><line class="aj" x2="6.847" y2="19.564" transform="translate(631.949 4017.094)"/><line class="aj" y1="7.449" x2="17.813" transform="translate(626.602 4023.625)"/><line class="aj" x2="6.847" y2="19.564" transform="translate(774.067 4641.324)"/><line class="aj" y1="7.449" x2="17.813" transform="translate(768.719 4647.855)"/><line class="ak" x2="6.847" y2="19.564" transform="translate(1523.496 4150.6)"/><line class="ak" y1="7.449" x2="17.813" transform="translate(1518.148 4157.131)"/><line class="ak" x2="6.847" y2="19.564" transform="translate(1401.252 4796.726)"/><line class="ak" y1="7.449" x2="17.813" transform="translate(1395.904 4803.257)"/><line class="ak" x2="6.847" y2="19.564" transform="translate(1753.164 4466.81)"/><line class="ak" y1="7.449" x2="17.813" transform="translate(1747.816 4473.341)"/><line class="al" x2="6.847" y2="19.564" transform="translate(652.989 4799.836)"/><line class="al" y1="7.449" x2="17.813" transform="translate(647.641 4806.367)"/><ellipse class="g" cx="46.327" cy="46.327" rx="46.327" ry="46.327" transform="translate(1215.366 4118.314)"/><ellipse class="am" cx="46.327" cy="46.327" rx="46.327" ry="46.327" transform="translate(1215.366 4118.314)"/><path class="an" d="M667.38,133.756c0,8.448-3.74,15.515-10.687,19.261-3.128,1.686-5.987,14.561-5.987,14.561l-13.558-.272s-2.231-13.684-4.606-15.336a22.179,22.179,0,1,1,34.838-18.214Z" transform="translate(614.495 4029.297)"/><path class="an" d="M632.8,141.76,629.28,121.7l8.677,4.881,8.405-4.881-3.254,20.065" transform="translate(620.737 4039.39)"/><line class="an" x2="24.149" transform="translate(1247.038 4181.267)"/><line class="an" x2="15.997" transform="translate(1251.102 4188.741)"/><path class="ao" d="M634.5,159.387" transform="translate(625.941 4076.991)"/><path class="ap" d="M419.186,501.131c.288,6.3-2.261,11.7-7.317,14.73-2.275,1.364-3.969,11.067-3.969,11.067l-10.122.26s-2.13-10.132-3.957-11.285a16.562,16.562,0,1,1,25.366-14.772Z" transform="translate(394.363 4473.149)"/><path class="ap" d="M392.4,508.31l-1.5-15.154,6.639,3.345,6.1-3.927.061,15.895" transform="translate(399.174 4480.382)"/><line class="ap" y1="0.318" x2="16.396" transform="translate(789.15 4989.368)"/><line class="ap" y1="0.545" x2="11.933" transform="translate(791.471 4993.944)"/><ellipse class="aq" cx="19.578" cy="19.578" rx="19.578" ry="19.578" transform="translate(530.587 4680.627)"/><path class="aq" d="M285.764,399.732,302,415.969Z" transform="translate(278.043 4316.761)"/><ellipse class="f" cx="6.555" cy="6.555" rx="6.555" ry="6.555" transform="translate(1402.709 4154.588)"/><path class="ar" d="M1797.126,998.8H0V0H1797.848Z" transform="translate(-390.365 4095.739)"/><g transform="translate(390.826 946.381)"><g transform="translate(786.879 2843.119)"><g transform="translate(0)"><rect class="as" width="328.271" height="212.308" rx="7.199"/></g><g transform="translate(0)"><path class="at" d="M404.848,88.3v14.66H76.578V88.3a14.168,14.168,0,0,1,14.17-14.17H390.678A14.168,14.168,0,0,1,404.848,88.3Z" transform="translate(-76.578 -74.127)"/><g transform="translate(6.006 6.336)"><path class="au" d="M117.473,85.426a8.079,8.079,0,1,1-8.08-8.08A8.079,8.079,0,0,1,117.473,85.426Z" transform="translate(-58.629 -77.346)"/><path class="av" d="M106.769,85.426a8.08,8.08,0,1,1-8.08-8.08A8.079,8.079,0,0,1,106.769,85.426Z" transform="translate(-68.996 -77.346)"/><path class="aw" d="M95.789,85.426a8.08,8.08,0,1,1-8.08-8.08A8.079,8.079,0,0,1,95.789,85.426Z" transform="translate(-79.629 -77.346)"/></g></g></g><g transform="translate(820.625 2889.787)"><rect class="av" width="95.665" height="10.609" transform="translate(86.542 25.123)"/><path class="z" d="M265.712,110.6H192.646v10.609h73.066" transform="translate(2.074 -85.477)"/><path class="at" d="M93.722,130.686H257.745V120.077H93.722" transform="translate(-93.722 -76.299)"/><path class="at" d="M116.388,108.445H280.411V97.836H116.388" transform="translate(-71.773 -97.836)"/><rect class="av" width="39.867" height="10.609" transform="translate(176.884 43.778)"/><path class="z" d="M248.717,120.077H210.2v10.609h38.522" transform="translate(19.068 -76.299)"/><path class="z" d="M252.833,97.836H205.945v10.609h46.888" transform="translate(14.953 -97.836)"/><path class="at" d="M93.722,140.163h86.542V129.554H93.722" transform="translate(-93.722 -67.121)"/><rect class="av" width="117.348" height="10.609" transform="translate(99.404 62.433)"/><path class="av" d="M110.7,149.641h53.126V139.032H110.7" transform="translate(-77.282 -57.943)"/><path class="z" d="M312.776,139.032H144.045v10.609H312.776" transform="translate(-44.99 -57.943)"/><path class="at" d="M93.722,159.118H167.4V148.509H93.722" transform="translate(-93.722 -48.766)"/><rect class="av" width="130.209" height="10.609" transform="translate(86.542 99.744)"/><path class="z" d="M248.717,148.509H210.2v10.609h38.522" transform="translate(19.068 -48.766)"/><path class="at" d="M93.722,168.6H217.1V157.986H93.722" transform="translate(-93.722 -39.588)"/><rect class="av" width="45.963" height="10.609" transform="translate(136.245 118.399)"/><path class="z" d="M265.712,157.986H192.646V168.6h73.066" transform="translate(2.074 -39.588)"/><rect class="av" width="162.781" height="10.609" transform="translate(53.971 137.054)"/><path class="z" d="M248.717,167.464H210.2v10.609h38.522" transform="translate(19.068 -30.41)"/></g><text class="ax" transform="translate(820.625 2900.808)"><tspan x="0" y="0">&lt;/&gt;</tspan></text></g><g transform="translate(1156.741 4766.151)"><g transform="translate(0.001 0)"><rect class="as" width="154.524" height="99.938" rx="3.449"/></g><path class="at" d="M482.211,64.027v6.9H327.685v-6.9a6.67,6.67,0,0,1,6.671-6.671H475.54A6.67,6.67,0,0,1,482.211,64.027Z" transform="translate(-327.685 -57.356)"/><g transform="translate(2.828 2.982)"><path class="au" d="M347.143,62.7a3.8,3.8,0,1,1-3.8-3.8A3.8,3.8,0,0,1,347.143,62.7Z" transform="translate(-319.443 -58.898)"/><path class="av" d="M342.013,62.7a3.8,3.8,0,1,1-3.8-3.8A3.8,3.8,0,0,1,342.013,62.7Z" transform="translate(-324.233 -58.898)"/><path class="aw" d="M336.754,62.7a3.8,3.8,0,1,1-3.8-3.8A3.8,3.8,0,0,1,336.754,62.7Z" transform="translate(-329.147 -58.898)"/></g><text class="ay" transform="translate(12.827 68.239)"><tspan x="0" y="0">HTML</tspan></text></g><g transform="translate(1438.265 3958.079)"><rect class="az" width="106.873" height="106.873" rx="5.5"/><g transform="translate(13.622 15.669)"><path class="z" d="M449.324,196.483A10.364,10.364,0,1,1,438.87,186.21,10.367,10.367,0,0,1,449.324,196.483Z" transform="translate(-399.06 -126.502)"/><path class="z" d="M484.565,179.674a48.955,48.955,0,0,0-59.491.523c-2.724,2.11-6.54,2.5-8.8.382h0c-2.251-2.1-1.547-6.49,1.924-9.2a60.131,60.131,0,0,1,73.08-.642c3.518,2.646,4.3,7.019,2.087,9.162h0C491.148,182.053,487.324,181.736,484.565,179.674Z" transform="translate(-414.979 -158.682)"/><path class="z" d="M469.2,185.188a34.887,34.887,0,0,0-39.426.347c-2.789,1.922-6.6,2.325-8.882.232h0c-2.273-2.071-1.39-6.691,2.479-9.4a46.08,46.08,0,0,1,52.069-.458c3.915,2.638,4.88,7.238,2.644,9.351h0C475.846,187.394,472.026,187.06,469.2,185.188Z" transform="translate(-409.507 -147.695)"/><path class="z" d="M452.991,190.823a20.325,20.325,0,0,0-18.443.161c-2.924,1.458-6.741,1.9-9.069-.143h0c-2.334-2-1-7.214,3.9-9.767a31.533,31.533,0,0,1,28.607-.252c4.939,2.471,6.37,7.654,4.071,9.7h0C459.765,192.6,455.939,192.227,452.991,190.823Z" transform="translate(-404.009 -136.665)"/></g></g><path class="u" d="M10.454,241.4,7.588,260.893l17.2-5.732Z" transform="translate(0.532 4158.812)"/><path class="aj" d="M-2.046,21.889l10.831,1.54L6.375,31.39l9.517,1.577-1.336,8.721L23.8,42.746,21.9,50.43" transform="translate(-9.079 3939.822)"/><path class="ah" d="M20.012,490.721a1.165,1.165,0,0,1-.969-1.8c4.409-6.688,19.88-29.89,22.343-29.89,2.881,0,27.835,32.154,27.835,32.154Z" transform="translate(11.767 4375.915)"/><path class="ah" d="M36.223,471.136l16.051,20.18,21.492-.421a1.168,1.168,0,0,0,1.145-1.155l.126-10.781a1.138,1.138,0,0,0-.425-.915c-2.747-2.213-17.895-14.389-24.013-18.768a2.2,2.2,0,0,0-2.873.254C44.333,462.988,36.223,471.136,36.223,471.136Z" transform="translate(29.099 4375.748)"/><ellipse class="ah" cx="5.395" cy="5.395" rx="5.395" ry="5.395" transform="translate(34.861 4823.039)"/><line class="aj" x2="6.847" y2="19.564" transform="translate(23.254 4743.456)"/><line class="aj" y1="7.449" x2="17.813" transform="translate(17.906 4749.987)"/><path class="ba" d="M-6.99,131.773l14.74,14.74L51.3,102.964" transform="translate(-14.011 4020.703)"/></g></svg>