<svg xmlns="http://www.w3.org/2000/svg" width="1476.941" height="1244.386" viewBox="0 0 1476.941 1244.386"><defs><style>.a,.af,.ag{fill:#323247;}.a{font-size:25.44px;font-family:Montserrat-Black, Montserrat;}.a,.ay{font-weight:800;}.b{fill:#b83d5d;}.c{fill:#e3b5aa;}.d{fill:#d78f97;}.aj,.am,.at,.ba,.e,.g,.i,.n,.y{fill:none;}.e{stroke:#c87e84;stroke-width:0.5px;}.aj,.am,.e,.g,.i,.n,.y{stroke-miterlimit:10;}.f{fill:#c87e84;}.g{stroke:#b83d5d;}.h{fill:#36364f;}.i{stroke:#fff;stroke-width:4px;}.j{fill:#9a304f;}.k{fill:#c33e5d;}.l{fill:#fdbb3b;}.m{fill:#d9751f;}.ak,.an,.m,.w{opacity:0.5;}.n{stroke:#dc831e;}.as,.at,.n{stroke-width:3px;}.aq,.as,.o,.r{fill:#fff;}.o{font-size:44.386px;}.ap,.aq,.o{font-family:Montserrat-Bold, Montserrat;font-weight:700;}.p{fill:#dd3e67;}.q{fill:#80abbd;}.s{fill:#4b7195;}.t{fill:#5a93a0;}.t,.u{opacity:0.4;}.u{fill:#a3d5e6;}.v,.w{fill:#7331fd;}.x{fill:#54b3cd;}.y{stroke:#fd783d;stroke-dasharray:4;}.ap,.z{fill:#eba154;}.aa,.ab,.ae{fill:#49496b;}.ab{font-size:18.427px;}.ab,.ae,.af{font-family:NanumBarunGothicBold, NanumBarunGothic;}.ac{fill:#47547c;}.ad{fill:#64648e;}.ae{font-size:18.142px;}.af{font-size:26.41px;}.ah{fill:#fd783d;}.ai,.an{fill:#0c8068;}.aj{stroke:#0a6d53;}.ak{fill:#0a6d53;}.al{fill:#159a7a;}.am{stroke:#0c8068;}.ao{fill:#dc831e;}.ap{font-size:15.611px;}.aq{font-size:13.844px;}.ar{fill:#7432ff;}.as,.at{stroke:#7431fd;}.au{fill:#e2e4e4;}.av{fill:#006891;}.aw{fill:#00aa80;}.ax{fill:#eb496f;}.ay{fill:#08b;font-size:54px;font-family:Montserrat-ExtraBold, Montserrat;}.az{stroke:none;}</style></defs><g transform="translate(-263.103 -2355.26)"><text class="a" transform="translate(586.525 2778.641)"><tspan x="0" y="0">&lt;/&gt;</tspan></text><g transform="translate(274.301 2462.773)"><path class="b" d="M466.058,221.789c-1.491,32.665-33.6,57.7-57.652,59.206-31.779,2-54.489-26.661-57.653-59.206-2.741-28.2,7.271-27.775,14.729-39.527,9.036-14.239,25.875-22.108,42.924-22.108C440.246,160.154,468.065,177.841,466.058,221.789Z"/><rect class="c" width="44.686" height="55.943" transform="translate(386.063 277.945)"/><path class="c" d="M458.6,245.315c7.972-12.1,18.113-12.626,22.348,1.679s-9.743,26.078-21.123,21.734S458.6,245.315,458.6,245.315Z"/><path class="d" d="M468.01,245.631c5.339-.977,8.075,14.931-3.634,15.456l2.408-5.551-2.26-4.617Z"/><path class="e" d="M462.625,263.268c6.825-7.274,1.9-12.349,1.9-12.349s6.5-13.324,9.1-3.112"/><path class="c" d="M357.838,245.315c-7.972-12.1-18.113-12.626-22.348,1.679s9.742,26.078,21.123,21.734S357.838,245.315,357.838,245.315Z"/><path class="d" d="M348.428,245.631c-5.339-.977-8.075,14.931,3.634,15.456l-2.408-5.551,2.26-4.617Z"/><path class="e" d="M353.813,263.268c-6.825-7.274-1.9-12.349-1.9-12.349s-6.5-13.324-9.1-3.112"/><path class="f" d="M430.749,279.182v20.812c-16.058,21.76-44.687,14.685-44.687,14.685l.5-35.5Z"/><path class="c" d="M32.623,0H63.978A32.623,32.623,0,0,1,96.6,32.623v35.3a48.3,48.3,0,0,1-48.3,48.3h0A48.3,48.3,0,0,1,0,67.919v-35.3A32.623,32.623,0,0,1,32.623,0Z" transform="translate(360.105 186.81)"/><path class="g" d="M415.837,261.043c-2.13,2.521-5.689,7.239-7.432,7.431-1.975.218-2.709-2.774-7.431-7.431"/><path class="b" d="M365.208,188.97s-8.46-14.023,2.136-26.387C367.344,162.583,374.957,176.679,365.208,188.97Z"/><path class="b" d="M369.505,185.64s-11.78,11.376-26.2,3.808C343.307,189.448,355.348,178.881,369.505,185.64Z"/><path class="h" d="M389.225,243.706c0,3.994-1.7,7.231-3.8,7.231s-3.8-3.237-3.8-7.231,1.7-7.231,3.8-7.231S389.225,239.713,389.225,243.706Z"/><circle class="i" cx="19.423" cy="19.423" r="19.423" transform="translate(359.625 256.819) rotate(-74.8)"/><path class="h" d="M435.184,243.706c0,3.994-1.7,7.231-3.8,7.231s-3.8-3.237-3.8-7.231,1.7-7.231,3.8-7.231S435.184,239.713,435.184,243.706Z"/><circle class="i" cx="19.423" cy="19.423" r="19.423" transform="translate(409.446 256.702) rotate(-74.518)"/><path class="b" d="M366.091,200.6s30.685-16.176,51.074-4.452,22.683,35.936,42.818,29.67c0,0,15.292-6.732-1.53-30.18S430.124,167.6,408.225,172.7,372.077,181.756,366.091,200.6Z"/><path class="j" d="M364.918,200.362s10.129-13.43,24.307-16.98,29.86,13.889,29.86,13.889S382.758,192.092,364.918,200.362Z"/><path class="b" d="M360.179,217.255s3.417,24.925,0,40.136C360.179,257.391,355.185,218.742,360.179,217.255Z"/><path class="b" d="M456.355,217.255s-3.417,24.925,0,40.136C456.355,257.391,461.349,218.742,456.355,217.255Z"/><path class="b" d="M394.084,215.31c-5.27-2.523-14.644-5.293-23.329.894a2.025,2.025,0,0,0,.859,3.632,65.082,65.082,0,0,0,11.308.949A47.971,47.971,0,0,0,393.71,219.1,2.026,2.026,0,0,0,394.084,215.31Z"/><path class="b" d="M444.98,215.31c-5.271-2.523-14.645-5.293-23.329.894a2.025,2.025,0,0,0,.859,3.632,65.082,65.082,0,0,0,11.308.949,47.979,47.979,0,0,0,10.788-1.688A2.026,2.026,0,0,0,444.98,215.31Z"/><path class="k" d="M424.743,278.489a15.992,15.992,0,0,1-1.9,2.759c-2.582,3.108-6.966,6.093-14.477,6.232l-.012.032-.551-.01-.021-.045c-7.042-.138-11.382-2.789-14-5.714a15.73,15.73,0,0,1-2.335-3.305,16.322,16.322,0,0,1-1.578-4.291l36.471.069A14.9,14.9,0,0,1,424.743,278.489Z"/><path class="h" d="M424.743,278.489a15.992,15.992,0,0,1-1.9,2.759,34.313,34.313,0,0,0-29.061.5,15.73,15.73,0,0,1-2.335-3.305,16.322,16.322,0,0,1-1.578-4.291l36.471.069A14.9,14.9,0,0,1,424.743,278.489Z"/><path class="l" d="M563.431,472.846l-326.96.34s6.1-12.76,14.88-29.67c.65-1.25,1.32-2.529,2-3.83,11.99-22.869,28.12-51.76,40.71-67.43,14.5-18.039,48.76-30.9,72.03-37.93,13.56-4.089,23.38-6.2,23.38-6.2h37.56s8.82,1.889,21.28,5.58c23.25,6.869,58.01,20.969,74.13,38.549a86.042,86.042,0,0,1,9.99,13.711C552.271,418.936,563.431,472.846,563.431,472.846Z"/><path class="m" d="M563.431,472.846l-326.96.34s6.1-12.76,14.88-29.67c163.161,47.962,249.142-30.638,268.763-51.915a17.335,17.335,0,0,1,12.238-5.632l.079,0C552.271,418.936,563.431,472.846,563.431,472.846Z"/><line class="i" x2="10.259" transform="translate(403.275 246.471)"/><path class="c" d="M448.31,333.7c-40.473,44.531-82.219.629-82.219.629,13.561-4.1,23.384-6.209,23.384-6.209h37.558S435.852,330.018,448.31,333.7Z"/><line class="n" y2="50.784" transform="translate(319.042 422.463)"/><line class="n" x1="13.636" y1="17.386" transform="translate(305.406 437.446)"/><line class="n" y2="50.784" transform="translate(496.844 422.463)"/><line class="n" y1="15.437" x2="12.108" transform="translate(496.844 439.394)"/><path class="n" d="M364.153,353.657s50.184,34.272,84.157-1.664"/><text class="o" transform="translate(451.716 424.131)"><tspan x="0" y="0">x</tspan></text><path class="p" d="M364.927,179.592c11.268-47.359,124.155-42.148,103.149,50.059-6.292,27.621-52.3-62.786-92.008-40.606a7.805,7.805,0,0,1-9.148-1.1h0C364.64,185.815,364.2,182.631,364.927,179.592Z"/></g><g transform="translate(274.301 2462.773)"><path class="q" d="M426.931,472.877a.36.36,0,0,1-.11.02,7.826,7.826,0,0,1-.83.039H207a9.213,9.213,0,0,1-9.2-9.209l-.03-.1-34.1-96.351a11.311,11.311,0,0,1,10.66-15.09h142.18a11.314,11.314,0,0,1,10.67,7.541l36.75,103.82.06.18H426.2C431.911,463.727,432.541,472.266,426.931,472.877Z"/><ellipse class="r" cx="16.487" cy="20.018" rx="16.487" ry="20.018" transform="translate(225.925 402.146) rotate(-18.978)"/><path class="s" d="M426.2,463.725H363.989s-.017-.063-.054-.18L327.18,359.724a11.31,11.31,0,0,0-10.667-7.535h-4.754s10.623.693,13.279,10.2,38.951,110.347,38.951,110.347l2.683.2h59.315c.288,0,.567-.009.837-.036C432.549,472.376,431.946,463.725,426.2,463.725Z"/><path class="t" d="M426.931,472.877a.36.36,0,0,1-.11.02,7.826,7.826,0,0,1-.83.039H207a9.166,9.166,0,0,1-7.19-3.469c129.44,11.119,116.7-117.281,116.7-117.281a11.314,11.314,0,0,1,10.67,7.541l36.75,103.82.06.18h61.23C425.881,466.756,426.461,469.807,426.931,472.877Z"/></g><g transform="translate(274.301 2462.773)"><path class="s" d="M166.533,409.331v3.223c-5.826.666-7.252,5.594-7.252,11.59v1.983c0,6,1.426,10.924,7.252,11.59v3.208H55.143a8.273,8.273,0,0,1-8.274-8.275V417.621a8.286,8.286,0,0,1,8.274-8.29Z"/><path class="r" d="M164.8,434.417a2.407,2.407,0,0,1-2.262,3.3L56.088,437.8V412.477l106.447.077a2.4,2.4,0,0,1,1.6.6,2.333,2.333,0,0,1,.666,2.7c-.883,2.107-.852,5.035-.852,8.289v1.983C163.945,429.381,163.914,432.31,164.8,434.417Z"/><path class="u" d="M164.131,413.158c-2.045.109-96.112,4.974-102.558,14.116-1.75,2.479-3.734,3.858-5.485,4.137V412.477l106.447.077A2.4,2.4,0,0,1,164.131,413.158Z"/><path class="s" d="M5.344,0H14.7a0,0,0,0,1,0,0V31.592a0,0,0,0,1,0,0H5.344A5.344,5.344,0,0,1,0,26.249V5.344A5.344,5.344,0,0,1,5.344,0Z" transform="translate(46.87 409.339)"/><path class="u" d="M164.8,434.417a2.407,2.407,0,0,1-2.262,3.3l-21.25.016c16.881-1.921,15.826-15.789,15.826-15.789.186-.666-13.34-8.8-13.107-9.4l18.531.015a2.4,2.4,0,0,1,1.6.6,2.332,2.332,0,0,1,.666,2.7c-.883,2.108-.852,5.036-.852,8.29v1.983C163.945,429.381,163.914,432.31,164.8,434.417Z"/><rect class="u" width="102.191" height="2.282" transform="translate(61.754 423.288)"/><rect class="u" width="102.191" height="2.282" transform="translate(61.754 418.149)"/><rect class="u" width="102.191" height="2.282" transform="translate(61.754 429.825)"/><path class="k" d="M131.029,433.068l-5.434-5.419-5.433,5.419V418.149h10.867Z"/><path class="k" d="M178.448,440.817v3.223c-5.826.667-7.252,5.594-7.252,11.59v1.983c0,6,1.426,10.924,7.252,11.59v3.208H67.058a8.272,8.272,0,0,1-8.274-8.274v-15.03a8.286,8.286,0,0,1,8.274-8.29Z"/><path class="r" d="M176.712,465.9a2.407,2.407,0,0,1-2.262,3.3L68,469.281V443.963l106.447.077a2.393,2.393,0,0,1,1.6.6,2.331,2.331,0,0,1,.666,2.7c-.883,2.107-.852,5.035-.852,8.289v1.983C175.86,460.867,175.829,463.8,176.712,465.9Z"/><path class="u" d="M176.046,444.645c-2.045.108-96.112,4.973-102.558,14.115-1.751,2.479-3.734,3.858-5.485,4.137V443.963l106.447.077A2.393,2.393,0,0,1,176.046,444.645Z"/><path class="k" d="M5.344,0H14.7a0,0,0,0,1,0,0V31.592a0,0,0,0,1,0,0H5.344A5.344,5.344,0,0,1,0,26.249V5.344A5.344,5.344,0,0,1,5.344,0Z" transform="translate(58.785 440.825)"/><path class="u" d="M176.712,465.9a2.407,2.407,0,0,1-2.262,3.3l-21.25.016c16.881-1.921,15.826-15.789,15.826-15.789.186-.666-13.34-8.8-13.107-9.4l18.531.015a2.393,2.393,0,0,1,1.6.6,2.331,2.331,0,0,1,.666,2.7c-.883,2.107-.852,5.035-.852,8.289v1.983C175.86,460.867,175.829,463.8,176.712,465.9Z"/><rect class="u" width="102.191" height="2.282" transform="translate(73.669 454.774)"/><rect class="u" width="102.191" height="2.282" transform="translate(73.669 449.635)"/><rect class="u" width="102.191" height="2.282" transform="translate(73.669 461.311)"/><path class="k" d="M164.682,466.539l-5.741-5.726-5.741,5.726V450.776h11.482Z"/></g><g transform="translate(274.301 2462.773)"><path class="v" d="M717.851,486.137v2.31a12.787,12.787,0,0,1-12.79,12.78H51.021a12.8,12.8,0,0,1-12.38-9.551.035.035,0,0,0-.01-.029,13.049,13.049,0,0,1-.4-3.2v-2.31a12.78,12.78,0,0,1,12.79-12.781h654.04A12.786,12.786,0,0,1,717.851,486.137Z"/><path class="w" d="M717.851,486.137v2.31a12.787,12.787,0,0,1-12.79,12.78H51.021a12.8,12.8,0,0,1-12.38-9.551.035.035,0,0,0-.01-.029c-.27-2.051-.4-3.2-.4-3.2,366.754,12.78,666.83-15.091,666.83-15.091A12.786,12.786,0,0,1,717.851,486.137Z"/></g><path class="x" d="M701.54,135.731c0-.083.01-.156.01-.24s-.01-.156-.01-.229a28.294,28.294,0,0,0,3.59-1.956,29.479,29.479,0,0,0,3.757-3.039l-.26-1.02a26.175,26.175,0,0,0-1.1-3.382c-.229-.541-.5-1.072-.76-1.6a10.859,10.859,0,0,0-.853-1.561l-.541-.895a27.5,27.5,0,0,0-4.8.5,25.426,25.426,0,0,0-3.913,1.155l-.333-.333a25.891,25.891,0,0,0,1.145-3.913,26.661,26.661,0,0,0,.51-4.8l-.9-.541a11.316,11.316,0,0,0-1.561-.853c-.531-.261-1.062-.531-1.614-.76a25.837,25.837,0,0,0-3.372-1.1l-1.019-.261a28.888,28.888,0,0,0-3.04,3.757,27.11,27.11,0,0,0-1.956,3.591c-.073,0-.156-.021-.229-.021s-.156.021-.239.021a25.8,25.8,0,0,0-1.957-3.591,28.61,28.61,0,0,0-3.028-3.757l-1.02.261a25.486,25.486,0,0,0-3.382,1.1c-.541.229-1.072.5-1.614.76a11.924,11.924,0,0,0-1.561.853l-.9.541a28.6,28.6,0,0,0,.511,4.8,25.684,25.684,0,0,0,1.155,3.913c-.115.114-.23.218-.333.333a25.773,25.773,0,0,0-3.914-1.155,27.6,27.6,0,0,0-4.8-.5l-.552.895a13.244,13.244,0,0,0-.853,1.561c-.25.531-.52,1.062-.75,1.6a24.591,24.591,0,0,0-1.1,3.382l-.261,1.02a28.8,28.8,0,0,0,3.757,3.039,27.521,27.521,0,0,0,3.58,1.956c0,.073-.01.146-.01.229s.01.157.01.24a26.379,26.379,0,0,0-3.58,1.956,28.7,28.7,0,0,0-3.757,3.029l.261,1.02a24.634,24.634,0,0,0,1.1,3.382c.23.541.5,1.072.75,1.613a13.949,13.949,0,0,0,.853,1.551l.552.9a27.7,27.7,0,0,0,4.8-.5,25.888,25.888,0,0,0,3.914-1.155c.1.114.218.229.333.333a25.651,25.651,0,0,0-1.155,3.913,28.711,28.711,0,0,0-.511,4.8l.9.551a13.3,13.3,0,0,0,1.561.843c.542.26,1.073.531,1.614.76a24.238,24.238,0,0,0,3.382,1.1l1.02.26a28.609,28.609,0,0,0,3.028-3.757,25.846,25.846,0,0,0,1.957-3.59,1.924,1.924,0,0,0,.239.021,1.77,1.77,0,0,0,.229-.021,27.163,27.163,0,0,0,1.956,3.59,28.888,28.888,0,0,0,3.04,3.757l1.019-.26a24.549,24.549,0,0,0,3.372-1.1c.552-.229,1.083-.5,1.614-.76a12.553,12.553,0,0,0,1.561-.843l.9-.551a26.758,26.758,0,0,0-.51-4.8,25.857,25.857,0,0,0-1.145-3.913c.114-.1.219-.219.333-.333a25.539,25.539,0,0,0,3.913,1.155,27.592,27.592,0,0,0,4.8.5l.541-.9a11.309,11.309,0,0,0,.853-1.551c.26-.541.531-1.072.76-1.613a26.224,26.224,0,0,0,1.1-3.382l.26-1.02a29.382,29.382,0,0,0-3.757-3.029A27.092,27.092,0,0,0,701.54,135.731Zm-17.245,8.013a8.253,8.253,0,1,1,8.253-8.253A8.252,8.252,0,0,1,684.295,143.744Z" transform="translate(2276.053 2610.643) rotate(180)"/><path class="y" d="M660.638,148.229H604.951v54.842h15.463" transform="translate(1546.043 2712.014) rotate(180)"/><g transform="translate(1130.944 3291.609) rotate(180)"><rect class="r" width="30.615" height="5.471" transform="translate(621.739 232.424)"/><rect class="r" width="47.067" height="5.472" transform="translate(621.739 242.547)"/><rect class="r" width="16.031" height="5.472" transform="translate(621.739 252.67)"/><rect class="z" width="16.031" height="5.472" transform="translate(644.313 252.67)"/><rect class="z" width="23.021" height="5.472" transform="translate(666.08 252.67)"/><rect class="z" width="13.979" height="5.472" transform="translate(675.122 242.547)"/><rect class="z" width="30.615" height="5.471" transform="translate(658.486 232.424)"/></g><g transform="translate(1344.677 1913.517) rotate(90)"><rect class="r" width="31.481" height="5.626" transform="translate(622.214 199.232)"/><rect class="r" width="48.4" height="5.627" transform="translate(622.214 209.641)"/><rect class="r" width="16.485" height="5.626" transform="translate(622.214 220.05)"/><rect class="z" width="16.485" height="5.626" transform="translate(645.427 220.05)"/><rect class="z" width="23.672" height="5.626" transform="translate(667.811 220.05)"/><rect class="z" width="14.375" height="5.627" transform="translate(677.108 209.641)"/><rect class="z" width="31.481" height="5.626" transform="translate(660.001 199.232)"/></g><g transform="translate(286.28 2291.394)"><rect class="aa" width="90.591" height="178.02" transform="translate(492.114 94.371)"/><rect class="r" width="68.016" height="7.224" transform="translate(502.434 132.233)"/><rect class="r" width="45.016" height="7.224" transform="translate(502.434 148.229)"/><rect class="z" width="16.314" height="7.224" transform="translate(554.136 148.229)"/><rect class="z" width="42.149" height="7.224" transform="translate(528.301 164.225)"/><rect class="r" width="19.74" height="7.224" transform="translate(502.434 164.225)"/><rect class="r" width="35.952" height="7.224" transform="translate(502.434 180.221)"/><rect class="z" width="26.526" height="7.224" transform="translate(543.923 180.221)"/><rect class="z" width="48.276" height="7.224" transform="translate(522.173 196.217)"/><rect class="r" width="14.593" height="7.224" transform="translate(502.434 196.217)"/><rect class="r" width="29.186" height="7.224" transform="translate(502.434 212.213)"/><rect class="z" width="34.008" height="7.224" transform="translate(536.442 212.213)"/><path class="z" d="M568.441,254.844v2.033L561,259.708v-1.955l5.208-1.892L561,253.953v-1.94Z"/><path class="z" d="M547.276,252.013v1.94l-5.208,1.908,5.208,1.892v1.955l-7.445-2.831v-2.033Z"/><path class="z" d="M556.076,246.533h2.329l-5.529,15.782h-2.328Z"/><path class="z" d="M534.258,115.915v2.665l-9.756,3.709v-2.562l6.825-2.48-6.825-2.5v-2.542Z"/><path class="z" d="M516.318,112.205v2.542l-6.826,2.5,6.826,2.48v2.562l-9.757-3.709v-2.665Z"/><text class="ab" transform="translate(492.701 79.867)"><tspan x="0" y="0">HTML</tspan></text></g><rect class="ac" width="18.682" height="5.234" transform="translate(593.343 2573.104)"/><rect class="ad" width="57.153" height="5.234" transform="translate(593.343 2563.785)"/><path class="y" d="M352.062,116.563v20.881h68.754V121.273" transform="translate(274.301 2462.773)"/><text class="ae" transform="translate(593.343 2550.046)"><tspan x="0" y="0">CSS</tspan></text><g transform="translate(274.301 2462.773)"><path class="ad" d="M435.967,99.956a15.578,15.578,0,0,0-.736-2.012,15.672,15.672,0,0,0-7.8-7.887.253.253,0,0,0-.09-.042,15.723,15.723,0,0,0-12.639-.194c-.1.049-.215.09-.319.139a15.77,15.77,0,1,0,21.581,10Zm-10.69,14.415a10.96,10.96,0,0,1-14.457-5.543,11.4,11.4,0,0,1-.506-1.373,10.921,10.921,0,0,1,.964-8.435.328.328,0,0,1,.035-.07,10.86,10.86,0,0,1,5.043-4.578,10.47,10.47,0,0,1,1.263-.465.411.411,0,0,1,.131-.042,10.9,10.9,0,0,1,6.528.125c.007,0,.014.007.021.007a11.035,11.035,0,0,1,4.661,3.059,10.723,10.723,0,0,1,1.853,2.858,11.194,11.194,0,0,1,.679,2.026,10.986,10.986,0,0,1-6.215,12.431Z"/><path class="b" d="M436.286,107.455h-4.974a10.9,10.9,0,0,0,.18-5.515,11.194,11.194,0,0,0-.679-2.026,10.723,10.723,0,0,0-1.853-2.858A11.035,11.035,0,0,0,424.3,94c-.007,0-.014-.007-.021-.007a10.9,10.9,0,0,0-6.528-.125.411.411,0,0,0-.131.042,10.47,10.47,0,0,0-1.263.465,10.86,10.86,0,0,0-5.043,4.578.328.328,0,0,0-.035.07,10.921,10.921,0,0,0-.964,8.435H405.34a15.807,15.807,0,0,1,9.046-17.5c.1-.049.215-.09.319-.139a15.723,15.723,0,0,1,12.639.194.253.253,0,0,1,.09.042,15.672,15.672,0,0,1,7.8,7.887,15.774,15.774,0,0,1,1.055,9.511Z"/></g><rect class="ad" width="34.728" height="5.234" transform="translate(615.769 2573.104)"/><text class="af" transform="translate(263.103 2552.046)"><tspan x="0" y="0">{ }</tspan></text><g transform="translate(272.656 2465.831)"><rect class="r" width="20.54" height="9.802" transform="translate(48.514 123.946)"/><rect class="r" width="20.54" height="9.802" transform="translate(48.514 141.07)"/><rect class="z" width="20.54" height="9.802" transform="translate(48.514 158.195)"/><rect class="z" width="20.54" height="9.802" transform="translate(48.514 175.32)"/><rect class="z" width="20.54" height="9.802" transform="translate(48.514 192.445)"/><rect class="z" width="20.54" height="9.802" transform="translate(48.514 209.57)"/><rect class="z" width="20.54" height="9.802" transform="translate(48.514 226.694)"/></g><g transform="translate(836.892 2871.055)"><rect class="r" width="20.54" height="9.802" transform="translate(48.514 123.946)"/><rect class="r" width="20.54" height="9.802" transform="translate(48.514 141.07)"/><rect class="z" width="20.54" height="9.802" transform="translate(48.514 158.195)"/><rect class="z" width="20.54" height="9.802" transform="translate(48.514 175.32)"/><rect class="z" width="20.54" height="9.802" transform="translate(48.514 192.445)"/><rect class="z" width="20.54" height="9.802" transform="translate(48.514 209.57)"/><rect class="z" width="20.54" height="9.802" transform="translate(48.514 226.694)"/></g><path class="ag" d="M649.491,316.688c0-.071.009-.133.009-.2s-.009-.134-.009-.2a24.339,24.339,0,0,0,3.071-1.673,25.262,25.262,0,0,0,3.212-2.6l-.222-.872a22.285,22.285,0,0,0-.944-2.892c-.2-.463-.427-.917-.649-1.371a9.21,9.21,0,0,0-.73-1.335l-.463-.765a23.6,23.6,0,0,0-4.1.427,21.76,21.76,0,0,0-3.346.988l-.284-.285a22.247,22.247,0,0,0,.979-3.346,22.85,22.85,0,0,0,.436-4.1l-.766-.463a9.709,9.709,0,0,0-1.335-.729c-.454-.223-.907-.454-1.379-.65a22.217,22.217,0,0,0-2.883-.943l-.873-.223a24.739,24.739,0,0,0-2.6,3.213,23.213,23.213,0,0,0-1.673,3.07c-.062,0-.133-.018-.2-.018s-.134.018-.205.018a22.1,22.1,0,0,0-1.673-3.07,24.569,24.569,0,0,0-2.59-3.213l-.872.223a21.852,21.852,0,0,0-2.892.943c-.463.2-.917.427-1.38.65A10.33,10.33,0,0,0,623.8,298l-.765.463a24.505,24.505,0,0,0,.436,4.1,22.037,22.037,0,0,0,.988,3.346c-.1.1-.2.187-.285.285a22,22,0,0,0-3.346-.988,23.673,23.673,0,0,0-4.1-.427l-.471.765a11.2,11.2,0,0,0-.73,1.335c-.213.454-.445.908-.641,1.371a21,21,0,0,0-.943,2.892l-.222.872a24.645,24.645,0,0,0,3.212,2.6,23.694,23.694,0,0,0,3.061,1.673c0,.062-.008.124-.008.2s.008.133.008.2a22.659,22.659,0,0,0-3.061,1.673,24.563,24.563,0,0,0-3.212,2.59l.222.872a21.057,21.057,0,0,0,.943,2.893c.2.462.428.916.641,1.379a11.819,11.819,0,0,0,.73,1.326l.471.765a23.675,23.675,0,0,0,4.1-.427,22,22,0,0,0,3.346-.988c.089.1.187.2.285.285a22.036,22.036,0,0,0-.988,3.346,24.606,24.606,0,0,0-.436,4.1l.765.472a11.48,11.48,0,0,0,1.335.721c.463.222.917.453,1.38.649a20.6,20.6,0,0,0,2.892.943l.872.223a24.569,24.569,0,0,0,2.59-3.213,22.046,22.046,0,0,0,1.673-3.07,1.577,1.577,0,0,0,.205.018,1.428,1.428,0,0,0,.2-.018,23.15,23.15,0,0,0,1.673,3.07,24.739,24.739,0,0,0,2.6,3.213l.873-.223a20.921,20.921,0,0,0,2.883-.943c.472-.2.925-.427,1.379-.649a10.72,10.72,0,0,0,1.335-.721l.766-.472a22.938,22.938,0,0,0-.436-4.1,22.246,22.246,0,0,0-.979-3.346c.1-.089.187-.187.284-.285a21.76,21.76,0,0,0,3.346.988,23.6,23.6,0,0,0,4.1.427l.463-.765a9.609,9.609,0,0,0,.73-1.326c.222-.463.453-.917.649-1.379a22.349,22.349,0,0,0,.944-2.893l.222-.872a25.177,25.177,0,0,0-3.212-2.59A23.252,23.252,0,0,0,649.491,316.688Zm-14.746,6.853a7.057,7.057,0,1,1,7.057-7.057A7.057,7.057,0,0,1,634.745,323.541Z" transform="translate(725.226 2684.422)"/><g transform="translate(296.93 2382.373)"><rect class="b" width="9.318" height="41.968" transform="translate(575.321 290.48)"/><rect class="ad" width="9.988" height="23.476" transform="translate(561.576 308.971)"/><rect class="ah" width="9.988" height="15.964" transform="translate(547.74 316.484)"/></g><path class="y" d="M545.974,325.762H526.76v37.665H547.74" transform="translate(296.93 2382.373)"/><g transform="translate(350.943 2396.312)"><rect class="r" width="26.429" height="4.723" transform="translate(550.904 361.562)"/><rect class="r" width="18.28" height="4.723" transform="translate(550.904 370.301)"/><rect class="r" width="23.138" height="4.723" transform="translate(550.904 379.04)"/><rect class="z" width="5.402" height="4.723" transform="translate(578.829 379.04)"/><rect class="z" width="19.873" height="4.723" transform="translate(589.183 379.04)"/><rect class="z" width="34.014" height="4.723" transform="translate(575.042 370.301)"/><rect class="z" width="26.429" height="4.723" transform="translate(582.627 361.562)"/></g><g transform="translate(968.126 2554.651)"><rect class="b" width="17.415" height="8.311" transform="translate(682.278 313.923)"/><rect class="b" width="17.415" height="8.311" transform="translate(682.278 328.443)"/><rect class="b" width="17.415" height="8.311" transform="translate(682.278 342.962)"/><rect class="b" width="17.415" height="8.311" transform="translate(682.278 357.481)"/><rect class="r" width="17.415" height="8.311" transform="translate(682.278 372)"/><rect class="r" width="17.415" height="8.311" transform="translate(682.278 386.519)"/><rect class="r" width="17.415" height="8.311" transform="translate(682.278 401.039)"/></g><g transform="translate(274.301 2462.773)"><path class="ai" d="M623.766,433.164a26.712,26.712,0,0,1-16.51-3.883c-18.37-11.367-22.2-43.43-22.467-45.838.161.739,1.972,4.66,21.066,17.505q2.383,1.608,4.373,3.259s.023.019.068.053C626.936,418.04,623.766,433.164,623.766,433.164Z"/><path class="aj" d="M584.776,383.3s17.153,42.094,36.183,46.526"/><path class="ak" d="M623.766,433.164a26.712,26.712,0,0,1-16.51-3.883c3.657-8.653,2.972-25.074,2.972-25.074s.023.019.068.053C626.936,418.04,623.766,433.164,623.766,433.164Z"/><path class="ai" d="M672.525,385.786c-.072.448-.329,2-.842,4.292v.008c-2.711,12.137-12.493,44.8-38.812,41.523a21.13,21.13,0,0,1,.444-6.995c1.3-6.164,5.487-15.342,18.217-23.038C670.423,390.151,672.334,386.483,672.525,385.786Z"/><path class="aj" d="M671.683,388.379s-13.507,35-36.938,42.133"/><path class="ak" d="M671.683,390.078v.008c-2.711,12.137-12.493,44.8-38.812,41.523a21.13,21.13,0,0,1,.444-6.995h.027C655.239,425.785,671.683,390.078,671.683,390.078Z"/><path class="al" d="M631.458,432.777c-.651,1.129-10.261-2.864-14.591-14.419h0c-2.6-6.942-3.293-16.613,1-29.535,11.287-33.939,6.635-40.337,6.5-40.516a41.244,41.244,0,0,1,16.361,16.827s.007.015.026.046C647.707,378.251,650.422,399.792,631.458,432.777Z"/><path class="am" d="M624.358,348.3s14.719,18.571,9.114,53.893-2.014,30.582-2.014,30.582"/><path class="an" d="M631.458,432.777c-.651,1.129-10.261-2.864-14.591-14.419,24.232,6.884,23.857-53.224,23.857-53.224s.007.015.026.046C647.707,378.251,650.422,399.792,631.458,432.777Z"/><path class="ai" d="M584.774,383.3l.011.119A.307.307,0,0,1,584.774,383.3Z"/><path class="z" d="M650.085,432.271V459.4a14.368,14.368,0,0,1-14.369,14.37H622.958a14.355,14.355,0,0,1-12.271-6.892h0a14.326,14.326,0,0,1-2.094-7.478V432.271Z"/><rect class="z" width="46.629" height="3.519" rx="1.059" transform="translate(606.023 428.752)"/><path class="ao" d="M650.085,432.271V459.4a14.368,14.368,0,0,1-14.369,14.37H622.958a14.355,14.355,0,0,1-12.271-6.892c30.393,9.545,36.994-12.8,35.818-21.667s-12.122-12.938-12.122-12.938Z"/></g><g transform="translate(274.301 2462.773)"><path class="ad" d="M72.918,276.746a22.677,22.677,0,0,0-6.407-4.418,1.255,1.255,0,0,0-.129-.06A22.832,22.832,0,0,0,55.7,270.256a22.514,22.514,0,0,0-7.536,1.737c-.153.065-.308.131-.459.2a22.752,22.752,0,1,0,25.214,4.555ZM63.4,307.381a15.774,15.774,0,0,1-20.182-22.134c.016-.029.033-.062.053-.1a15.678,15.678,0,0,1,7.273-6.6,15.081,15.081,0,0,1,1.815-.676c.063-.022.128-.042.192-.061a15.7,15.7,0,0,1,9.409.187.147.147,0,0,1,.036.009,15.836,15.836,0,0,1,6.718,4.41A15.782,15.782,0,0,1,63.4,307.381Z"/><path class="z" d="M66.511,272.328a22.728,22.728,0,0,1,12.3,14.277l-6.454,2.859a15.76,15.76,0,0,0-10.364-11.451L61.958,278h0l4.424-5.736"/><line class="z" x1="4.517" y2="5.686" transform="translate(61.994 272.328)"/><path class="b" d="M61.994,278.013,61.958,278a15.7,15.7,0,0,0-9.409-.187c-.064.019-.129.039-.192.061l-4.194-5.885a22.514,22.514,0,0,1,7.536-1.737,22.832,22.832,0,0,1,10.683,2.012"/><path class="y" d="M58.784,315.715v38.447h65.734V315.109"/><rect class="aa" width="192.848" height="229.918" transform="translate(100.528 83.297)"/><rect class="ad" width="192.848" height="29.181" transform="translate(100.528 72.097)"/><path class="z" d="M271.06,297.4v1.894l-6.935,2.637V300.11l4.851-1.763-4.851-1.777v-1.807Z"/><path class="z" d="M251.343,294.763v1.807l-4.851,1.777,4.851,1.763v1.821l-6.935-2.637V297.4Z"/><text class="ap" transform="translate(254.906 302.798)"><tspan x="0" y="0">/</tspan></text><path class="z" d="M146.225,119.881v2.362l-8.648,3.288V123.26l6.05-2.2-6.05-2.216v-2.253Z"/><path class="z" d="M130.322,116.592v2.253l-6.05,2.216,6.05,2.2v2.271l-8.649-3.288v-2.362Z"/><text class="aq" transform="translate(112.229 92.873)"><tspan x="0" y="0">WEB DEVELOPING</tspan></text><rect class="x" width="56.687" height="10.381" transform="translate(133.868 139.554)"/><rect class="z" width="28.344" height="10.381" transform="translate(198.542 139.554)"/><rect class="r" width="39.038" height="10.381" transform="translate(233.414 139.554)"/><rect class="x" width="26.457" height="10.381" transform="translate(133.868 158.088)"/><rect class="z" width="45.19" height="10.381" transform="translate(167.524 158.088)"/><rect class="r" width="52.374" height="10.381" transform="translate(220.078 158.088)"/><rect class="x" width="34.826" height="10.381" transform="translate(133.868 176.622)"/><rect class="z" width="65.512" height="10.381" transform="translate(174.363 176.622)"/><rect class="r" width="25.557" height="10.381" transform="translate(246.895 176.622)"/><rect class="x" width="43.915" height="10.381" transform="translate(133.868 195.156)"/><rect class="z" width="42.624" height="10.381" transform="translate(184.262 195.156)"/><rect class="r" width="39.038" height="10.381" transform="translate(233.414 195.156)"/><rect class="x" width="19.258" height="10.381" transform="translate(133.868 213.69)"/><rect class="z" width="38.155" height="10.381" transform="translate(159.605 213.69)"/><rect class="r" width="68.752" height="10.381" transform="translate(203.7 213.69)"/><rect class="x" width="55.073" height="10.381" transform="translate(133.868 232.224)"/><rect class="z" width="16.933" height="10.381" transform="translate(195.781 232.224)"/><rect class="r" width="52.374" height="10.381" transform="translate(220.078 232.224)"/><rect class="x" width="71.706" height="10.381" transform="translate(133.868 250.758)"/><rect class="z" width="29.337" height="10.381" transform="translate(211.619 250.758)"/><rect class="r" width="25.557" height="10.381" transform="translate(246.895 250.758)"/><rect class="x" width="21.957" height="10.381" transform="translate(133.868 269.292)"/><rect class="z" width="26.73" height="10.381" transform="translate(162.211 269.292)"/><rect class="r" width="76.671" height="10.381" transform="translate(195.781 269.292)"/><rect class="r" width="2.111" height="140.119" transform="translate(280.032 139.554)"/><circle class="r" cx="5.191" cy="5.191" r="5.191" transform="translate(110.851 139.554)"/><circle class="r" cx="5.191" cy="5.191" r="5.191" transform="translate(110.851 158.088)"/><circle class="r" cx="5.191" cy="5.191" r="5.191" transform="translate(110.851 176.622)"/><circle class="r" cx="5.191" cy="5.191" r="5.191" transform="translate(110.851 195.156)"/><circle class="r" cx="5.191" cy="5.191" r="5.191" transform="translate(110.851 213.69)"/><circle class="r" cx="5.191" cy="5.191" r="5.191" transform="translate(110.851 232.224)"/><circle class="r" cx="5.191" cy="5.191" r="5.191" transform="translate(110.851 250.758)"/><circle class="r" cx="5.191" cy="5.191" r="5.191" transform="translate(110.851 269.292)"/><path class="b" d="M284.786,88.3a5.295,5.295,0,1,1-5.3-5.294A5.295,5.295,0,0,1,284.786,88.3Z"/><path class="r" d="M271.7,88.191a5.335,5.335,0,1,1-5.334-5.335A5.334,5.334,0,0,1,271.7,88.191Z"/></g><circle class="z" cx="6.5" cy="6.5" r="6.5" transform="translate(838 2739)"/><circle class="z" cx="6.5" cy="6.5" r="6.5" transform="translate(918 2502)"/><circle class="ar" cx="11.5" cy="11.5" r="11.5" transform="translate(1648.044 3428.593)"/><circle class="ar" cx="11.5" cy="11.5" r="11.5" transform="translate(1717.044 3313.043)"/><circle class="ar" cx="11.5" cy="11.5" r="11.5" transform="translate(588 2998.902)"/><circle class="ar" cx="11.5" cy="11.5" r="11.5" transform="translate(1717.044 3506.646)"/><g class="as" transform="translate(1648.044 3381.41)"><circle class="az" cx="11.5" cy="11.5" r="11.5"/><circle class="ba" cx="11.5" cy="11.5" r="10"/></g><g class="as" transform="translate(1647.818 3240.117)"><circle class="az" cx="11.5" cy="11.5" r="11.5"/><circle class="ba" cx="11.5" cy="11.5" r="10"/></g><g class="as" transform="translate(710.322 3239.117)"><circle class="az" cx="11.5" cy="11.5" r="11.5"/><circle class="ba" cx="11.5" cy="11.5" r="10"/></g><g class="as" transform="translate(1580.044 3394.668)"><circle class="az" cx="11.5" cy="11.5" r="11.5"/><circle class="ba" cx="11.5" cy="11.5" r="10"/></g><g class="as" transform="translate(665.612 3060.401)"><circle class="az" cx="11.5" cy="11.5" r="11.5"/><circle class="ba" cx="11.5" cy="11.5" r="10"/></g><circle class="ar" cx="11.5" cy="11.5" r="11.5" transform="translate(611 3145.265)"/><path class="at" d="M0,285.127V197.065l36.013-36.013V0" transform="translate(1692.887 3314.519)"/><path class="at" d="M36.013,184.767V96.7L0,60.691V0" transform="translate(1591.301 3414.879)"/><path class="at" d="M0,0V52.132L36.013,88.145v29.131" transform="translate(641.1 2946.09)"/><path class="at" d="M0,0V58.8" transform="translate(599.5 2953.365)"/><path class="at" d="M0,81.5V0" transform="translate(1728.544 3518.146)"/><g transform="translate(1290.063 3191.004)"><rect class="au" width="151.875" height="98.225" rx="4.448"/><g transform="translate(0 0)"><path class="av" d="M489.862,377.139v6.784H337.988v-6.784a6.555,6.555,0,0,1,6.556-6.554H483.306A6.554,6.554,0,0,1,489.862,377.139Z" transform="translate(-337.988 -370.585)"/><g transform="translate(2.778 2.932)"><path class="aw" d="M360.748,376.312a3.738,3.738,0,1,1-3.738-3.738A3.738,3.738,0,0,1,360.748,376.312Z" transform="translate(-333.523 -372.574)"/><path class="l" d="M354.134,376.312a3.739,3.739,0,1,1-3.739-3.738A3.739,3.739,0,0,1,354.134,376.312Z" transform="translate(-336.658 -372.574)"/><path class="ax" d="M347.35,376.312a3.739,3.739,0,1,1-3.739-3.738A3.739,3.739,0,0,1,347.35,376.312Z" transform="translate(-339.873 -372.574)"/></g></g><text class="ay" transform="translate(20.254 71.889)"><tspan x="0" y="0">C++</tspan></text></g></g></svg>